<svg xmlns="http://www.w3.org/2000/svg" xmlns:xlink="http://www.w3.org/1999/xlink" contentStyleType="text/css" data-diagram-type="SEQUENCE" height="1814px" preserveAspectRatio="none" style="width:1089px;height:1814px;background:#FFFFFF;" version="1.1" viewBox="0 0 1089 1814" width="1089px" zoomAndPan="magnify"><defs/><g><g><title>Пользователь</title><rect fill="#FFFFFF" height="29.1328" style="stroke:#181818;stroke-width:1;" width="10" x="79.5498" y="112.4297"/></g><g><title>Пользователь</title><rect fill="#FFFFFF" height="1502.25" style="stroke:#181818;stroke-width:1;" width="10" x="79.5498" y="213.8281"/></g><g><title>МП IYM</title><rect fill="#FFFFFF" height="29.1328" style="stroke:#181818;stroke-width:1;" width="10" x="257.6924" y="112.4297"/></g><g><title>МП IYM</title><rect fill="#FFFFFF" height="1502.25" style="stroke:#181818;stroke-width:1;" width="10" x="257.6924" y="213.8281"/></g><g><title>IYM Backend</title><rect fill="#FFFFFF" height="1385.7188" style="stroke:#181818;stroke-width:1;" width="10" x="445.6548" y="301.2266"/></g><g><title>Redis</title><rect fill="#FFFFFF" height="111.5313" style="stroke:#181818;stroke-width:1;" width="10" x="796.9253" y="373.4922"/></g><g><title>Redis</title><rect fill="#FFFFFF" height="29.1328" style="stroke:#181818;stroke-width:1;" width="10" x="796.9253" y="645.4922"/></g><g><title>Redis</title><rect fill="#FFFFFF" height="53.2656" style="stroke:#181818;stroke-width:1;" width="10" x="796.9253" y="1004.0859"/></g><g><title>DB.MOBILEN</title><rect fill="#FFFFFF" height="87.3984" style="stroke:#181818;stroke-width:1;" width="10" x="884.5234" y="528.9609"/></g><g><title>DB.MOBILEN</title><rect fill="#FFFFFF" height="147.6641" style="stroke:#181818;stroke-width:1;" width="10" x="884.5234" y="753.8906"/></g><g><title>DB.MOBILEN</title><rect fill="#FFFFFF" height="29.1328" style="stroke:#181818;stroke-width:1;" width="10" x="884.5234" y="945.8203"/></g><g><title>DB.MOBILEN</title><rect fill="#FFFFFF" height="213.0625" style="stroke:#181818;stroke-width:1;" width="10" x="884.5234" y="1101.2891"/></g><g><title>Процессинг</title><rect fill="#FFFFFF" height="29.1328" style="stroke:#181818;stroke-width:1;" width="10" x="996.478" y="1367.6172"/></g><rect fill="none" height="265" style="stroke:#000000;stroke-width:1.5;" width="562.0469" x="388.8691" y="417.625"/><rect fill="none" height="104.5313" style="stroke:#000000;stroke-width:1.5;" width="930.916" x="20" y="768.8906"/><rect fill="none" height="481.1953" style="stroke:#000000;stroke-width:1.5;" width="1062.04" x="10" y="1019.0859"/><rect fill="none" height="104.5313" style="stroke:#000000;stroke-width:1.5;" width="930.916" x="20" y="1181.6875"/><rect fill="none" height="75.3984" style="stroke:#000000;stroke-width:1.5;" width="673.1709" x="388.8691" y="1329.3516"/><rect fill="none" height="59.2656" style="stroke:#000000;stroke-width:1.5;" width="220.7456" x="388.8691" y="1599.5469"/><g><title>Пользователь</title><rect fill="#000000" fill-opacity="0.00000" height="1652.7813" width="8" x="80.5498" y="81.2969"/><line style="stroke:#181818;stroke-width:0.5;stroke-dasharray:5.0,5.0;" x1="84" x2="84" y1="81.2969" y2="1734.0781"/></g><g><title>МП IYM</title><rect fill="#000000" fill-opacity="0.00000" height="1652.7813" width="8" x="258.6924" y="81.2969"/><line style="stroke:#181818;stroke-width:0.5;stroke-dasharray:5.0,5.0;" x1="261.7842" x2="261.7842" y1="81.2969" y2="1734.0781"/></g><g><title>IYM Backend</title><rect fill="#000000" fill-opacity="0.00000" height="1652.7813" width="8" x="446.6548" y="81.2969"/><line style="stroke:#181818;stroke-width:0.5;stroke-dasharray:5.0,5.0;" x1="449.8691" x2="449.8691" y1="81.2969" y2="1734.0781"/></g><g><title>Redis</title><rect fill="#000000" fill-opacity="0.00000" height="1652.7813" width="8" x="797.9253" y="81.2969"/><line style="stroke:#181818;stroke-width:0.5;stroke-dasharray:5.0,5.0;" x1="801.7197" x2="801.7197" y1="81.2969" y2="1734.0781"/></g><g><title>DB.MOBILEN</title><rect fill="#000000" fill-opacity="0.00000" height="1652.7813" width="8" x="885.5234" y="81.2969"/><line style="stroke:#181818;stroke-width:0.5;stroke-dasharray:5.0,5.0;" x1="889.1309" x2="889.1309" y1="81.2969" y2="1734.0781"/></g><g><title>Процессинг</title><rect fill="#000000" fill-opacity="0.00000" height="1652.7813" width="8" x="997.478" y="81.2969"/><line style="stroke:#181818;stroke-width:0.5;stroke-dasharray:5.0,5.0;" x1="1000.916" x2="1000.916" y1="81.2969" y2="1734.0781"/></g><g class="participant participant-head" data-participant="User"><text fill="#000000" font-family="sans-serif" font-size="14" lengthAdjust="spacing" textLength="103.0996" x="30" y="77.9951">Пользователь</text><ellipse cx="84.5498" cy="13.5" fill="#E2E2F0" rx="8" ry="8" style="stroke:#181818;stroke-width:0.5;"/><path d="M84.5498,21.5 L84.5498,48.5 M71.5498,29.5 L97.5498,29.5 M84.5498,48.5 L71.5498,63.5 M84.5498,48.5 L97.5498,63.5" fill="none" style="stroke:#181818;stroke-width:0.5;"/></g><g class="participant participant-tail" data-participant="User"><text fill="#000000" font-family="sans-serif" font-size="14" lengthAdjust="spacing" textLength="103.0996" x="30" y="1746.0732">Пользователь</text><ellipse cx="84.5498" cy="1757.875" fill="#E2E2F0" rx="8" ry="8" style="stroke:#181818;stroke-width:0.5;"/><path d="M84.5498,1765.875 L84.5498,1792.875 M71.5498,1773.875 L97.5498,1773.875 M84.5498,1792.875 L71.5498,1807.875 M84.5498,1792.875 L97.5498,1807.875" fill="none" style="stroke:#181818;stroke-width:0.5;"/></g><g class="participant participant-head" data-participant="App"><rect fill="#E2E2F0" height="30.2969" rx="2.5" ry="2.5" style="stroke:#181818;stroke-width:0.5;" width="65.8164" x="229.7842" y="50"/><text fill="#000000" font-family="sans-serif" font-size="14" lengthAdjust="spacing" textLength="51.8164" x="236.7842" y="69.9951">МП IYM</text></g><g class="participant participant-tail" data-participant="App"><rect fill="#E2E2F0" height="30.2969" rx="2.5" ry="2.5" style="stroke:#181818;stroke-width:0.5;" width="65.8164" x="229.7842" y="1733.0781"/><text fill="#000000" font-family="sans-serif" font-size="14" lengthAdjust="spacing" textLength="51.8164" x="236.7842" y="1753.0732">МП IYM</text></g><g class="participant participant-head" data-participant="BE"><rect fill="#E2E2F0" height="30.2969" rx="2.5" ry="2.5" style="stroke:#181818;stroke-width:0.5;" width="103.5713" x="398.8691" y="50"/><text fill="#000000" font-family="sans-serif" font-size="14" lengthAdjust="spacing" textLength="89.5713" x="405.8691" y="69.9951">IYM Backend</text></g><g class="participant participant-tail" data-participant="BE"><rect fill="#E2E2F0" height="30.2969" rx="2.5" ry="2.5" style="stroke:#181818;stroke-width:0.5;" width="103.5713" x="398.8691" y="1733.0781"/><text fill="#000000" font-family="sans-serif" font-size="14" lengthAdjust="spacing" textLength="89.5713" x="405.8691" y="1753.0732">IYM Backend</text></g><g class="participant participant-head" data-participant="Redis"><rect fill="#E2E2F0" height="30.2969" rx="2.5" ry="2.5" style="stroke:#181818;stroke-width:0.5;" width="52.4111" x="775.7197" y="50"/><text fill="#000000" font-family="sans-serif" font-size="14" lengthAdjust="spacing" textLength="38.4111" x="782.7197" y="69.9951">Redis</text></g><g class="participant participant-tail" data-participant="Redis"><rect fill="#E2E2F0" height="30.2969" rx="2.5" ry="2.5" style="stroke:#181818;stroke-width:0.5;" width="52.4111" x="775.7197" y="1733.0781"/><text fill="#000000" font-family="sans-serif" font-size="14" lengthAdjust="spacing" textLength="38.4111" x="782.7197" y="1753.0732">Redis</text></g><g class="participant participant-head" data-participant="DB"><rect fill="#E2E2F0" height="30.2969" rx="2.5" ry="2.5" style="stroke:#181818;stroke-width:0.5;" width="102.7852" x="838.1309" y="50"/><text fill="#000000" font-family="sans-serif" font-size="14" lengthAdjust="spacing" textLength="88.7852" x="845.1309" y="69.9951">DB.MOBILEN</text></g><g class="participant participant-tail" data-participant="DB"><rect fill="#E2E2F0" height="30.2969" rx="2.5" ry="2.5" style="stroke:#181818;stroke-width:0.5;" width="102.7852" x="838.1309" y="1733.0781"/><text fill="#000000" font-family="sans-serif" font-size="14" lengthAdjust="spacing" textLength="88.7852" x="845.1309" y="1753.0732">DB.MOBILEN</text></g><g class="participant participant-head" data-participant="Processing"><rect fill="#E2E2F0" height="30.2969" rx="2.5" ry="2.5" style="stroke:#181818;stroke-width:0.5;" width="101.124" x="950.916" y="50"/><text fill="#000000" font-family="sans-serif" font-size="14" lengthAdjust="spacing" textLength="87.124" x="957.916" y="69.9951">Процессинг</text></g><g class="participant participant-tail" data-participant="Processing"><rect fill="#E2E2F0" height="30.2969" rx="2.5" ry="2.5" style="stroke:#181818;stroke-width:0.5;" width="101.124" x="950.916" y="1733.0781"/><text fill="#000000" font-family="sans-serif" font-size="14" lengthAdjust="spacing" textLength="87.124" x="957.916" y="1753.0732">Процессинг</text></g><g><title>Пользователь</title><rect fill="#FFFFFF" height="29.1328" style="stroke:#181818;stroke-width:1;" width="10" x="79.5498" y="112.4297"/></g><g><title>Пользователь</title><rect fill="#FFFFFF" height="1502.25" style="stroke:#181818;stroke-width:1;" width="10" x="79.5498" y="213.8281"/></g><g><title>МП IYM</title><rect fill="#FFFFFF" height="29.1328" style="stroke:#181818;stroke-width:1;" width="10" x="257.6924" y="112.4297"/></g><g><title>МП IYM</title><rect fill="#FFFFFF" height="1502.25" style="stroke:#181818;stroke-width:1;" width="10" x="257.6924" y="213.8281"/></g><g><title>IYM Backend</title><rect fill="#FFFFFF" height="1385.7188" style="stroke:#181818;stroke-width:1;" width="10" x="445.6548" y="301.2266"/></g><g><title>Redis</title><rect fill="#FFFFFF" height="111.5313" style="stroke:#181818;stroke-width:1;" width="10" x="796.9253" y="373.4922"/></g><g><title>Redis</title><rect fill="#FFFFFF" height="29.1328" style="stroke:#181818;stroke-width:1;" width="10" x="796.9253" y="645.4922"/></g><g><title>Redis</title><rect fill="#FFFFFF" height="53.2656" style="stroke:#181818;stroke-width:1;" width="10" x="796.9253" y="1004.0859"/></g><g><title>DB.MOBILEN</title><rect fill="#FFFFFF" height="87.3984" style="stroke:#181818;stroke-width:1;" width="10" x="884.5234" y="528.9609"/></g><g><title>DB.MOBILEN</title><rect fill="#FFFFFF" height="147.6641" style="stroke:#181818;stroke-width:1;" width="10" x="884.5234" y="753.8906"/></g><g><title>DB.MOBILEN</title><rect fill="#FFFFFF" height="29.1328" style="stroke:#181818;stroke-width:1;" width="10" x="884.5234" y="945.8203"/></g><g><title>DB.MOBILEN</title><rect fill="#FFFFFF" height="213.0625" style="stroke:#181818;stroke-width:1;" width="10" x="884.5234" y="1101.2891"/></g><g><title>Процессинг</title><rect fill="#FFFFFF" height="29.1328" style="stroke:#181818;stroke-width:1;" width="10" x="996.478" y="1367.6172"/></g><g class="message" data-participant-1="User" data-participant-2="App"><polygon fill="#181818" points="245.6924,108.4297,255.6924,112.4297,245.6924,116.4297,249.6924,112.4297" style="stroke:#181818;stroke-width:1;"/><line style="stroke:#181818;stroke-width:1;" x1="89.5498" x2="251.6924" y1="112.4297" y2="112.4297"/><text fill="#000000" font-family="sans-serif" font-size="13" lengthAdjust="spacing" textLength="122.6938" x="96.5498" y="107.3638">Перевод на карту</text></g><g class="message" data-participant-1="App" data-participant-2="User"><polygon fill="#181818" points="95.5498,137.5625,85.5498,141.5625,95.5498,145.5625,91.5498,141.5625" style="stroke:#181818;stroke-width:1;"/><line style="stroke:#181818;stroke-width:1;" x1="89.5498" x2="261.6924" y1="141.5625" y2="141.5625"/><text fill="#000000" font-family="sans-serif" font-size="13" lengthAdjust="spacing" textLength="111.0967" x="101.5498" y="136.4966">Экран перевода</text></g><rect fill="#EEEEEE" height="3" style="stroke:#EEEEEE;stroke-width:1;" width="1082.04" x="0" y="170.1289"/><line style="stroke:#000000;stroke-width:1;" x1="0" x2="1082.04" y1="170.1289" y2="170.1289"/><line style="stroke:#000000;stroke-width:1;" x1="0" x2="1082.04" y1="173.1289" y2="173.1289"/><rect fill="#EEEEEE" height="23.1328" style="stroke:#000000;stroke-width:2;" width="136.5542" x="472.7429" y="159.5625"/><text fill="#000000" font-family="sans-serif" font-size="13" font-weight="bold" lengthAdjust="spacing" textLength="122.5542" x="478.7429" y="175.6294">v1/card/byphone</text><g class="message" data-participant-1="User" data-participant-2="App"><polygon fill="#181818" points="245.6924,209.8281,255.6924,213.8281,245.6924,217.8281,249.6924,213.8281" style="stroke:#181818;stroke-width:1;"/><line style="stroke:#181818;stroke-width:1;" x1="89.5498" x2="251.6924" y1="213.8281" y2="213.8281"/><text fill="#000000" font-family="sans-serif" font-size="13" lengthAdjust="spacing" textLength="143.6094" x="96.5498" y="208.7622">По номеру телефона</text></g><g class="message" data-participant-1="App" data-participant-2="User"><polygon fill="#181818" points="100.5498,238.9609,90.5498,242.9609,100.5498,246.9609,96.5498,242.9609" style="stroke:#181818;stroke-width:1;"/><line style="stroke:#181818;stroke-width:1;" x1="94.5498" x2="256.6924" y1="242.9609" y2="242.9609"/><text fill="#000000" font-family="sans-serif" font-size="13" lengthAdjust="spacing" textLength="144.1426" x="106.5498" y="237.895">Форма ввода номера</text></g><g class="message" data-participant-1="User" data-participant-2="App"><polygon fill="#181818" points="245.6924,268.0938,255.6924,272.0938,245.6924,276.0938,249.6924,272.0938" style="stroke:#181818;stroke-width:1;"/><line style="stroke:#181818;stroke-width:1;" x1="89.5498" x2="251.6924" y1="272.0938" y2="272.0938"/><text fill="#000000" font-family="sans-serif" font-size="13" lengthAdjust="spacing" textLength="104.9648" x="96.5498" y="267.0278">998XXXXXXXXX</text></g><g class="message" data-participant-1="App" data-participant-2="BE"><polygon fill="#181818" points="433.6548,297.2266,443.6548,301.2266,433.6548,305.2266,437.6548,301.2266" style="stroke:#181818;stroke-width:1;"/><line style="stroke:#181818;stroke-width:1;" x1="267.6924" x2="439.6548" y1="301.2266" y2="301.2266"/><text fill="#000000" font-family="sans-serif" font-size="13" font-weight="bold" lengthAdjust="spacing" textLength="122.5542" x="274.6924" y="296.1606">v1/card/byphone</text></g><rect fill="#EEEEEE" height="3" style="stroke:#EEEEEE;stroke-width:1;" width="1082.04" x="0" y="329.793"/><line style="stroke:#000000;stroke-width:1;" x1="0" x2="1082.04" y1="329.793" y2="329.793"/><line style="stroke:#000000;stroke-width:1;" x1="0" x2="1082.04" y1="332.793" y2="332.793"/><rect fill="#EEEEEE" height="23.1328" style="stroke:#000000;stroke-width:2;" width="155.1528" x="463.4436" y="319.2266"/><text fill="#000000" font-family="sans-serif" font-size="13" font-weight="bold" lengthAdjust="spacing" textLength="141.1528" x="469.4436" y="335.2935">Банки и префиксы</text><g class="message" data-participant-1="BE" data-participant-2="Redis"><polygon fill="#181818" points="784.9253,369.4922,794.9253,373.4922,784.9253,377.4922,788.9253,373.4922" style="stroke:#181818;stroke-width:1;"/><line style="stroke:#181818;stroke-width:1;" x1="455.6548" x2="790.9253" y1="373.4922" y2="373.4922"/><text fill="#000000" font-family="sans-serif" font-size="13" lengthAdjust="spacing" textLength="143.8696" x="462.6548" y="368.4263">cards_byphone_banks</text></g><g class="message" data-participant-1="BE" data-participant-2="Redis"><polygon fill="#181818" points="784.9253,398.625,794.9253,402.625,784.9253,406.625,788.9253,402.625" style="stroke:#181818;stroke-width:1;"/><line style="stroke:#181818;stroke-width:1;" x1="455.6548" x2="790.9253" y1="402.625" y2="402.625"/><text fill="#000000" font-family="sans-serif" font-size="13" lengthAdjust="spacing" textLength="231.0547" x="462.6548" y="397.5591">cards_byphone_bank_card_prefixes</text></g><path d="M388.8691,417.625 L453.312,417.625 L453.312,424.7578 L443.312,434.7578 L388.8691,434.7578 L388.8691,417.625" fill="#EEEEEE" style="stroke:#000000;stroke-width:1.5;"/><rect fill="none" height="265" style="stroke:#000000;stroke-width:1.5;" width="562.0469" x="388.8691" y="417.625"/><text fill="#000000" font-family="sans-serif" font-size="13" font-weight="bold" lengthAdjust="spacing" textLength="19.4429" x="403.8691" y="430.6919">alt</text><text fill="#000000" font-family="sans-serif" font-size="11" font-weight="bold" lengthAdjust="spacing" textLength="76.4897" x="468.312" y="429.8354">[Ключ есть]</text><g class="message" data-participant-1="Redis" data-participant-2="BE"><polygon fill="#181818" points="466.6548,451.8906,456.6548,455.8906,466.6548,459.8906,462.6548,455.8906" style="stroke:#181818;stroke-width:1;"/><line style="stroke:#181818;stroke-width:1;" x1="460.6548" x2="795.9253" y1="455.8906" y2="455.8906"/><text fill="#000000" font-family="sans-serif" font-size="13" lengthAdjust="spacing" textLength="41.6851" x="472.6548" y="450.8247">Банки</text></g><g class="message" data-participant-1="Redis" data-participant-2="BE"><polygon fill="#181818" points="466.6548,481.0234,456.6548,485.0234,466.6548,489.0234,462.6548,485.0234" style="stroke:#181818;stroke-width:1;"/><line style="stroke:#181818;stroke-width:1;" x1="460.6548" x2="800.9253" y1="485.0234" y2="485.0234"/><text fill="#000000" font-family="sans-serif" font-size="13" lengthAdjust="spacing" textLength="70.8525" x="472.6548" y="479.9575">Префиксы</text></g><line style="stroke:#000000;stroke-width:1;stroke-dasharray:2.0,2.0;" x1="388.8691" x2="950.916" y1="494.0234" y2="494.0234"/><text fill="#000000" font-family="sans-serif" font-size="11" font-weight="bold" lengthAdjust="spacing" textLength="78.0366" x="393.8691" y="504.2339">[Ключа нет]</text><g class="message" data-participant-1="BE" data-participant-2="DB"><polygon fill="#181818" points="872.5234,524.9609,882.5234,528.9609,872.5234,532.9609,876.5234,528.9609" style="stroke:#181818;stroke-width:1;"/><line style="stroke:#181818;stroke-width:1;" x1="455.6548" x2="878.5234" y1="528.9609" y2="528.9609"/><text fill="#000000" font-family="sans-serif" font-size="13" lengthAdjust="spacing" textLength="97.2905" x="462.6548" y="523.895">Записи BANKS</text></g><g class="message" data-participant-1="BE" data-participant-2="DB"><polygon fill="#181818" points="872.5234,554.0938,882.5234,558.0938,872.5234,562.0938,876.5234,558.0938" style="stroke:#181818;stroke-width:1;"/><line style="stroke:#181818;stroke-width:1;" x1="455.6548" x2="878.5234" y1="558.0938" y2="558.0938"/><text fill="#000000" font-family="sans-serif" font-size="13" lengthAdjust="spacing" textLength="200.8208" x="462.6548" y="553.0278">Записи BANK_CARD_PREFIXES</text></g><g class="message" data-participant-1="DB" data-participant-2="BE"><polygon fill="#181818" points="466.6548,583.2266,456.6548,587.2266,466.6548,591.2266,462.6548,587.2266" style="stroke:#181818;stroke-width:1;"/><line style="stroke:#181818;stroke-width:1;" x1="460.6548" x2="883.5234" y1="587.2266" y2="587.2266"/><text fill="#000000" font-family="sans-serif" font-size="13" lengthAdjust="spacing" textLength="41.6851" x="472.6548" y="582.1606">Банки</text></g><g class="message" data-participant-1="DB" data-participant-2="BE"><polygon fill="#181818" points="466.6548,612.3594,456.6548,616.3594,466.6548,620.3594,462.6548,616.3594" style="stroke:#181818;stroke-width:1;"/><line style="stroke:#181818;stroke-width:1;" x1="460.6548" x2="888.5234" y1="616.3594" y2="616.3594"/><text fill="#000000" font-family="sans-serif" font-size="13" lengthAdjust="spacing" textLength="70.8525" x="472.6548" y="611.2935">Префиксы</text></g><g class="message" data-participant-1="BE" data-participant-2="Redis"><polygon fill="#181818" points="784.9253,641.4922,794.9253,645.4922,784.9253,649.4922,788.9253,645.4922" style="stroke:#181818;stroke-width:1;"/><line style="stroke:#181818;stroke-width:1;" x1="455.6548" x2="790.9253" y1="645.4922" y2="645.4922"/><text fill="#000000" font-family="sans-serif" font-size="13" lengthAdjust="spacing" textLength="176.3569" x="462.6548" y="640.4263">cards_byphone_banks, 24ч</text></g><g class="message" data-participant-1="BE" data-participant-2="Redis"><polygon fill="#181818" points="789.9253,670.625,799.9253,674.625,789.9253,678.625,793.9253,674.625" style="stroke:#181818;stroke-width:1;"/><line style="stroke:#181818;stroke-width:1;" x1="455.6548" x2="795.9253" y1="674.625" y2="674.625"/><text fill="#000000" font-family="sans-serif" font-size="13" lengthAdjust="spacing" textLength="263.542" x="462.6548" y="669.5591">cards_byphone_bank_card_prefixes, 24ч</text></g><rect fill="#EEEEEE" height="3" style="stroke:#EEEEEE;stroke-width:1;" width="1082.04" x="0" y="710.1914"/><line style="stroke:#000000;stroke-width:1;" x1="0" x2="1082.04" y1="710.1914" y2="710.1914"/><line style="stroke:#000000;stroke-width:1;" x1="0" x2="1082.04" y1="713.1914" y2="713.1914"/><rect fill="#EEEEEE" height="23.1328" style="stroke:#000000;stroke-width:2;" width="88.877" x="496.5815" y="699.625"/><text fill="#000000" font-family="sans-serif" font-size="13" font-weight="bold" lengthAdjust="spacing" textLength="74.877" x="502.5815" y="715.6919">IYB карты</text><g class="message" data-participant-1="BE" data-participant-2="DB"><polygon fill="#181818" points="872.5234,749.8906,882.5234,753.8906,872.5234,757.8906,876.5234,753.8906" style="stroke:#181818;stroke-width:1;"/><line style="stroke:#181818;stroke-width:1;" x1="455.6548" x2="878.5234" y1="753.8906" y2="753.8906"/><text fill="#000000" font-family="sans-serif" font-size="13" lengthAdjust="spacing" textLength="169.7236" x="462.6548" y="748.8247">Запросить user по phone</text></g><path d="M20,768.8906 L84.4429,768.8906 L84.4429,776.0234 L74.4429,786.0234 L20,786.0234 L20,768.8906" fill="#EEEEEE" style="stroke:#000000;stroke-width:1.5;"/><rect fill="none" height="104.5313" style="stroke:#000000;stroke-width:1.5;" width="930.916" x="20" y="768.8906"/><text fill="#000000" font-family="sans-serif" font-size="13" font-weight="bold" lengthAdjust="spacing" textLength="19.4429" x="35" y="781.9575">alt</text><text fill="#000000" font-family="sans-serif" font-size="11" font-weight="bold" lengthAdjust="spacing" textLength="106.7129" x="99.4429" y="781.1011">[user не найден]</text><g class="message" data-participant-1="DB" data-participant-2="BE"><polygon fill="#181818" points="466.6548,803.1563,456.6548,807.1563,466.6548,811.1563,462.6548,807.1563" style="stroke:#181818;stroke-width:1;"/><line style="stroke:#181818;stroke-width:1;" x1="460.6548" x2="883.5234" y1="807.1563" y2="807.1563"/><text fill="#000000" font-family="sans-serif" font-size="13" lengthAdjust="spacing" textLength="51.8477" x="472.6548" y="802.0903">(empty)</text></g><g class="message" data-participant-1="BE" data-participant-2="App"><polygon fill="#181818" points="278.6924,832.2891,268.6924,836.2891,278.6924,840.2891,274.6924,836.2891" style="stroke:#181818;stroke-width:1;"/><line style="stroke:#181818;stroke-width:1;" x1="272.6924" x2="444.6548" y1="836.2891" y2="836.2891"/><text fill="#000000" font-family="sans-serif" font-size="13" lengthAdjust="spacing" textLength="153.9624" x="284.6924" y="831.2231">ERROR: user_not_found</text></g><g class="message" data-participant-1="App" data-participant-2="User"><polygon fill="#181818" points="100.5498,861.4219,90.5498,865.4219,100.5498,869.4219,96.5498,865.4219" style="stroke:#181818;stroke-width:1;"/><line style="stroke:#181818;stroke-width:1;" x1="94.5498" x2="256.6924" y1="865.4219" y2="865.4219"/><text fill="#000000" font-family="sans-serif" font-size="13" lengthAdjust="spacing" textLength="54.4121" x="106.5498" y="860.356">Ошибка</text></g><g class="message" data-participant-1="DB" data-participant-2="BE"><polygon fill="#181818" points="466.6548,897.5547,456.6548,901.5547,466.6548,905.5547,462.6548,901.5547" style="stroke:#181818;stroke-width:1;"/><line style="stroke:#181818;stroke-width:1;" x1="460.6548" x2="888.5234" y1="901.5547" y2="901.5547"/><text fill="#000000" font-family="sans-serif" font-size="13" lengthAdjust="spacing" textLength="95.7354" x="472.6548" y="896.4888">Пользователь</text></g><g class="message" data-participant-1="BE" data-participant-2="DB"><polygon fill="#181818" points="872.5234,941.8203,882.5234,945.8203,872.5234,949.8203,876.5234,945.8203" style="stroke:#181818;stroke-width:1;"/><line style="stroke:#181818;stroke-width:1;" x1="455.6548" x2="878.5234" y1="945.8203" y2="945.8203"/><text fill="#000000" font-family="sans-serif" font-size="13" lengthAdjust="spacing" textLength="218.2896" x="462.6548" y="925.6216">Крайний users_cards.updated_at</text><text fill="#000000" font-family="sans-serif" font-size="13" lengthAdjust="spacing" textLength="136.1953" x="462.6548" y="940.7544">этого пользователя</text></g><g class="message" data-participant-1="DB" data-participant-2="BE"><polygon fill="#181818" points="466.6548,970.9531,456.6548,974.9531,466.6548,978.9531,462.6548,974.9531" style="stroke:#181818;stroke-width:1;"/><line style="stroke:#181818;stroke-width:1;" x1="460.6548" x2="888.5234" y1="974.9531" y2="974.9531"/><text fill="#000000" font-family="sans-serif" font-size="13" lengthAdjust="spacing" textLength="160.1387" x="472.6548" y="969.8872">Последнее обновление</text></g><g class="message" data-participant-1="BE" data-participant-2="Redis"><polygon fill="#181818" points="784.9253,1000.0859,794.9253,1004.0859,784.9253,1008.0859,788.9253,1004.0859" style="stroke:#181818;stroke-width:1;"/><line style="stroke:#181818;stroke-width:1;" x1="455.6548" x2="790.9253" y1="1004.0859" y2="1004.0859"/><text fill="#000000" font-family="sans-serif" font-size="13" lengthAdjust="spacing" textLength="318.1382" x="462.6548" y="999.02">cards_byphone_iyb_{{phone}}_{{updated_at}}</text></g><path d="M10,1019.0859 L74.4429,1019.0859 L74.4429,1026.2188 L64.4429,1036.2188 L10,1036.2188 L10,1019.0859" fill="#EEEEEE" style="stroke:#000000;stroke-width:1.5;"/><rect fill="none" height="481.1953" style="stroke:#000000;stroke-width:1.5;" width="1062.04" x="10" y="1019.0859"/><text fill="#000000" font-family="sans-serif" font-size="13" font-weight="bold" lengthAdjust="spacing" textLength="19.4429" x="25" y="1032.1528">alt</text><text fill="#000000" font-family="sans-serif" font-size="11" font-weight="bold" lengthAdjust="spacing" textLength="76.4897" x="89.4429" y="1031.2964">[Ключ есть]</text><g class="message" data-participant-1="Redis" data-participant-2="BE"><polygon fill="#181818" points="466.6548,1053.3516,456.6548,1057.3516,466.6548,1061.3516,462.6548,1057.3516" style="stroke:#181818;stroke-width:1;"/><line style="stroke:#181818;stroke-width:1;" x1="460.6548" x2="800.9253" y1="1057.3516" y2="1057.3516"/><text fill="#000000" font-family="sans-serif" font-size="13" lengthAdjust="spacing" textLength="68.1104" x="472.6548" y="1052.2856">Карты IYB</text></g><line style="stroke:#000000;stroke-width:1;stroke-dasharray:2.0,2.0;" x1="10" x2="1072.04" y1="1066.3516" y2="1066.3516"/><text fill="#000000" font-family="sans-serif" font-size="11" font-weight="bold" lengthAdjust="spacing" textLength="78.0366" x="15" y="1076.562">[Ключа нет]</text><g class="message" data-participant-1="BE" data-participant-2="DB"><polygon fill="#181818" points="872.5234,1097.2891,882.5234,1101.2891,872.5234,1105.2891,876.5234,1101.2891" style="stroke:#181818;stroke-width:1;"/><line style="stroke:#181818;stroke-width:1;" x1="455.6548" x2="878.5234" y1="1101.2891" y2="1101.2891"/><text fill="#000000" font-family="sans-serif" font-size="13" lengthAdjust="spacing" textLength="142.0352" x="462.6548" y="1096.2231">Карты пользователя</text></g><path d="M830,1114.2891 L830,1169.2891 L948,1169.2891 L948,1124.2891 L938,1114.2891 L830,1114.2891" fill="#87CEEB" style="stroke:#181818;stroke-width:0.5;"/><path d="M938,1114.2891 L938,1124.2891 L948,1124.2891 L938,1114.2891" fill="#87CEEB" style="stroke:#181818;stroke-width:0.5;"/><text fill="#000000" font-family="sans-serif" font-size="13" lengthAdjust="spacing" textLength="97.8491" x="836" y="1131.356">IS_MAIN=TRUE</text><text fill="#000000" font-family="sans-serif" font-size="13" lengthAdjust="spacing" textLength="91.6475" x="836" y="1146.4888">STATE=active</text><text fill="#000000" font-family="sans-serif" font-size="13" font-weight="bold" lengthAdjust="spacing" textLength="27.0029" x="836" y="1161.6216">one</text><path d="M20,1181.6875 L84.4429,1181.6875 L84.4429,1188.8203 L74.4429,1198.8203 L20,1198.8203 L20,1181.6875" fill="#EEEEEE" style="stroke:#000000;stroke-width:1.5;"/><rect fill="none" height="104.5313" style="stroke:#000000;stroke-width:1.5;" width="930.916" x="20" y="1181.6875"/><text fill="#000000" font-family="sans-serif" font-size="13" font-weight="bold" lengthAdjust="spacing" textLength="19.4429" x="35" y="1194.7544">alt</text><text fill="#000000" font-family="sans-serif" font-size="11" font-weight="bold" lengthAdjust="spacing" textLength="75.9312" x="99.4429" y="1193.8979">[Карты нет]</text><g class="message" data-participant-1="DB" data-participant-2="BE"><polygon fill="#181818" points="466.6548,1215.9531,456.6548,1219.9531,466.6548,1223.9531,462.6548,1219.9531" style="stroke:#181818;stroke-width:1;"/><line style="stroke:#181818;stroke-width:1;" x1="460.6548" x2="883.5234" y1="1219.9531" y2="1219.9531"/><text fill="#000000" font-family="sans-serif" font-size="13" lengthAdjust="spacing" textLength="51.8477" x="472.6548" y="1214.8872">(empty)</text></g><g class="message" data-participant-1="BE" data-participant-2="App"><polygon fill="#181818" points="278.6924,1245.0859,268.6924,1249.0859,278.6924,1253.0859,274.6924,1249.0859" style="stroke:#181818;stroke-width:1;"/><line style="stroke:#181818;stroke-width:1;" x1="272.6924" x2="444.6548" y1="1249.0859" y2="1249.0859"/><text fill="#000000" font-family="sans-serif" font-size="13" lengthAdjust="spacing" textLength="90.3843" x="284.6924" y="1244.02">no_main_card</text></g><g class="message" data-participant-1="App" data-participant-2="User"><polygon fill="#181818" points="100.5498,1274.2188,90.5498,1278.2188,100.5498,1282.2188,96.5498,1278.2188" style="stroke:#181818;stroke-width:1;"/><line style="stroke:#181818;stroke-width:1;" x1="94.5498" x2="256.6924" y1="1278.2188" y2="1278.2188"/><text fill="#000000" font-family="sans-serif" font-size="13" lengthAdjust="spacing" textLength="54.4121" x="106.5498" y="1273.1528">Ошибка</text></g><g class="message" data-participant-1="DB" data-participant-2="BE"><polygon fill="#181818" points="466.6548,1310.3516,456.6548,1314.3516,466.6548,1318.3516,462.6548,1314.3516" style="stroke:#181818;stroke-width:1;"/><line style="stroke:#181818;stroke-width:1;" x1="460.6548" x2="888.5234" y1="1314.3516" y2="1314.3516"/><text fill="#000000" font-family="sans-serif" font-size="13" lengthAdjust="spacing" textLength="68.1104" x="472.6548" y="1309.2856">Карты IYB</text></g><path d="M388.8691,1329.3516 L465.4932,1329.3516 L465.4932,1336.4844 L455.4932,1346.4844 L388.8691,1346.4844 L388.8691,1329.3516" fill="#EEEEEE" style="stroke:#000000;stroke-width:1.5;"/><rect fill="none" height="75.3984" style="stroke:#000000;stroke-width:1.5;" width="673.1709" x="388.8691" y="1329.3516"/><text fill="#000000" font-family="sans-serif" font-size="13" font-weight="bold" lengthAdjust="spacing" textLength="31.624" x="403.8691" y="1342.4185">loop</text><text fill="#000000" font-family="sans-serif" font-size="11" font-weight="bold" lengthAdjust="spacing" textLength="74.9375" x="480.4932" y="1341.562">[Карты IYB]</text><g class="message" data-participant-1="BE" data-participant-2="Processing"><polygon fill="#181818" points="984.478,1363.6172,994.478,1367.6172,984.478,1371.6172,988.478,1367.6172" style="stroke:#181818;stroke-width:1;"/><line style="stroke:#181818;stroke-width:1;" x1="455.6548" x2="990.478" y1="1367.6172" y2="1367.6172"/><text fill="#000000" font-family="sans-serif" font-size="13" lengthAdjust="spacing" textLength="135.5796" x="462.6548" y="1362.5513">getCardHolderByPan</text></g><g class="message" data-participant-1="Processing" data-participant-2="BE"><polygon fill="#181818" points="466.6548,1392.75,456.6548,1396.75,466.6548,1400.75,462.6548,1396.75" style="stroke:#181818;stroke-width:1;"/><line style="stroke:#181818;stroke-width:1;" x1="460.6548" x2="1000.478" y1="1396.75" y2="1396.75"/><text fill="#000000" font-family="sans-serif" font-size="13" lengthAdjust="spacing" textLength="91.7236" x="472.6548" y="1391.6841">Имя на карте</text></g><g class="message" data-participant-1="BE" data-participant-2="Redis"><polygon fill="#181818" points="789.9253,1444.0156,799.9253,1448.0156,789.9253,1452.0156,793.9253,1448.0156" style="stroke:#181818;stroke-width:1;"/><line style="stroke:#181818;stroke-width:1;" x1="455.6548" x2="795.9253" y1="1448.0156" y2="1448.0156"/><text fill="#000000" font-family="sans-serif" font-size="13" lengthAdjust="spacing" textLength="217.9341" x="462.6548" y="1427.8169">cards_byphone_iyb_{{phone}}_*</text><text fill="#000000" font-family="sans-serif" font-size="13" lengthAdjust="spacing" textLength="56.8687" x="462.6548" y="1442.9497">Удалить</text></g><g class="message" data-participant-1="BE" data-participant-2="Redis"><polygon fill="#181818" points="789.9253,1488.2813,799.9253,1492.2813,789.9253,1496.2813,793.9253,1492.2813" style="stroke:#181818;stroke-width:1;"/><line style="stroke:#181818;stroke-width:1;" x1="455.6548" x2="795.9253" y1="1492.2813" y2="1492.2813"/><text fill="#000000" font-family="sans-serif" font-size="13" lengthAdjust="spacing" textLength="318.1382" x="462.6548" y="1472.0825">cards_byphone_iyb_{{phone}}_{{updated_at}}</text><text fill="#000000" font-family="sans-serif" font-size="13" lengthAdjust="spacing" textLength="68.1104" x="462.6548" y="1487.2153">Карты IYB</text></g><g class="message" data-participant-1="BE" data-participant-2="BE"><line style="stroke:#181818;stroke-width:1;" x1="455.6548" x2="497.6548" y1="1528.4141" y2="1528.4141"/><line style="stroke:#181818;stroke-width:1;" x1="497.6548" x2="497.6548" y1="1528.4141" y2="1541.4141"/><line style="stroke:#181818;stroke-width:1;" x1="456.6548" x2="497.6548" y1="1541.4141" y2="1541.4141"/><polygon fill="#181818" points="466.6548,1537.4141,456.6548,1541.4141,466.6548,1545.4141,462.6548,1541.4141" style="stroke:#181818;stroke-width:1;"/><text fill="#000000" font-family="sans-serif" font-size="13" lengthAdjust="spacing" textLength="135.2432" x="462.6548" y="1523.3481">Карты IYB -&gt; Карты</text></g><rect fill="#EEEEEE" height="3" style="stroke:#EEEEEE;stroke-width:1;" width="1082.04" x="0" y="1569.9805"/><line style="stroke:#000000;stroke-width:1;" x1="0" x2="1082.04" y1="1569.9805" y2="1569.9805"/><line style="stroke:#000000;stroke-width:1;" x1="0" x2="1082.04" y1="1572.9805" y2="1572.9805"/><rect fill="#EEEEEE" height="23.1328" style="stroke:#000000;stroke-width:2;" width="146.1836" x="467.9282" y="1559.4141"/><text fill="#000000" font-family="sans-serif" font-size="13" font-weight="bold" lengthAdjust="spacing" textLength="132.1836" x="473.9282" y="1575.481">Связка с банками</text><path d="M388.8691,1599.5469 L465.4932,1599.5469 L465.4932,1606.6797 L455.4932,1616.6797 L388.8691,1616.6797 L388.8691,1599.5469" fill="#EEEEEE" style="stroke:#000000;stroke-width:1.5;"/><rect fill="none" height="59.2656" style="stroke:#000000;stroke-width:1.5;" width="220.7456" x="388.8691" y="1599.5469"/><text fill="#000000" font-family="sans-serif" font-size="13" font-weight="bold" lengthAdjust="spacing" textLength="31.624" x="403.8691" y="1612.6138">loop</text><text fill="#000000" font-family="sans-serif" font-size="11" font-weight="bold" lengthAdjust="spacing" textLength="50.6655" x="480.4932" y="1611.7573">[Карты]</text><g class="message" data-participant-1="BE" data-participant-2="BE"><line style="stroke:#181818;stroke-width:1;" x1="455.6548" x2="497.6548" y1="1637.8125" y2="1637.8125"/><line style="stroke:#181818;stroke-width:1;" x1="497.6548" x2="497.6548" y1="1637.8125" y2="1650.8125"/><line style="stroke:#181818;stroke-width:1;" x1="456.6548" x2="497.6548" y1="1650.8125" y2="1650.8125"/><polygon fill="#181818" points="466.6548,1646.8125,456.6548,1650.8125,466.6548,1654.8125,462.6548,1650.8125" style="stroke:#181818;stroke-width:1;"/><text fill="#000000" font-family="sans-serif" font-size="13" lengthAdjust="spacing" textLength="124.96" x="462.6548" y="1632.7466">Банк по префиксу</text></g><g class="message" data-participant-1="BE" data-participant-2="App"><polygon fill="#181818" points="278.6924,1682.9453,268.6924,1686.9453,278.6924,1690.9453,274.6924,1686.9453" style="stroke:#181818;stroke-width:1;"/><line style="stroke:#181818;stroke-width:1;" x1="272.6924" x2="449.6548" y1="1686.9453" y2="1686.9453"/><text fill="#000000" font-family="sans-serif" font-size="13" lengthAdjust="spacing" textLength="84.7539" x="284.6924" y="1681.8794">Список карт</text></g><g class="message" data-participant-1="App" data-participant-2="User"><polygon fill="#181818" points="95.5498,1712.0781,85.5498,1716.0781,95.5498,1720.0781,91.5498,1716.0781" style="stroke:#181818;stroke-width:1;"/><line style="stroke:#181818;stroke-width:1;" x1="89.5498" x2="261.6924" y1="1716.0781" y2="1716.0781"/><text fill="#000000" font-family="sans-serif" font-size="13" lengthAdjust="spacing" textLength="89.4448" x="101.5498" y="1711.0122">Выбор карты</text></g><!--SRC=[fLPTQnD157tVNp745msselXWYn6oRSIWhILfeGLXsIRR6Xftb-os6AJG3x52gqLVb28MqLSXLeDfRRP_OUOVUUviDlkHxPSkXMPdxvmvzyovTqQlk5Q3-K-6xtEF_n4x_3V-7_2MsE1jUi_GLzrXCuxHK6ozuTOgDLitNSpunFTPSMuYm_eFulAs7Gz315Frof9XLZD1a5g8nvICQis9u52C78k7ZQl34u_LugF2PAOVDgucMEsBDUw9LxmjriKwx_0k_nb6JpMiYk4uDNDHKIWZDdIF6BDHXlpRcDb6xXx_nJ2jnVWHT5WJ6s9JwHEhkBKLtJLyFGP6ANk9UtSemFtEZu3Rubt6Jw9By5P_UjL8XusC4t0kjtBpHaLlL6_CD-sdbcdaSeD9U4JTuyUqbDXa_ZRYvIK6kv4rBv_8DyYw1c3eSX2a45aCs74o8oDtPeD7eI5yKGluaCqcyiXc1md08haSVqV2OHiwZFvEI3raqe6aws8RwGCFgD8g02PCH-k1QlEwkUGC0lk-Ec-YHaEQtJ0MQiyDHz7hBkDxg8UtOej9Qss87OaD84WK08M4qpxkn_cdxRFFpgWxHdyzN-Mss0WWGNnS9RmFMEo4TyZcJCrFFYmhB5f30IPAvBoPsbY-DAvDbGhtYxE5SeIx7vwMbV_bj9GIQSKedB5TrzcjssBhj4sx24Hyun9uWqARLTYiEAU6jHxQAYALx2aGYxQTBPFD8P_7vB9Ack1a63yEMoUx2Jz4mRHvDodXLUEPxJQloM6g4epBAYcKIezBen94CorNMx2MGPQY4dNvMRo6_3ye0PbFR7lIcxgIlaNHjFTaqpe4ymu_b2mSAQqpl6nN4L_LT9SzCSKRO7hy9_MTazJ5TbFrIP24jcXI40XgaLuUykbA61ec3kqpEQVxeTQSrrwyaBzNL_4hPBwwUfh7BbpfUu5VS0Qg_rtA8TgbPAHtcCDWrWey0QWhvQMcMbyEJLaiQnFvucHkkZHJw0-Mf_FJXPm42YEpsR0LmqSILxxq9EaJ33Cumyf9EvkMzaolcT93_O0pdDnZCT1mpfMzfqhTikpJedtXmxi0S1SDTmpC7bZrgj5GcrEwEQXtvF8GJpw6n3_oOx4Rlq2akpU15ydsWexEeW3vLpg7KIQTg57_gIG8BIvOhvq41tVyAms78tHQV-47OXU-HTPCh3Fif7zij713wA2j9lOaGjQ7xnqpVczDdFQRaapKKLZEFy8ycj9JEardN2KIHdilja4Ervb8sx_aRUml]--></g></svg>