<svg xmlns="http://www.w3.org/2000/svg" xmlns:xlink="http://www.w3.org/1999/xlink" contentStyleType="text/css" data-diagram-type="SEQUENCE" height="1910px" preserveAspectRatio="none" style="width:1147px;height:1910px;background:#FFFFFF;" version="1.1" viewBox="0 0 1147 1910" width="1147px" zoomAndPan="magnify"><defs/><g><g><title>Пользователь</title><rect fill="#FFFFFF" height="29.1328" style="stroke:#181818;stroke-width:1;" width="10" x="79.5498" y="208.0938"/></g><g><title>Пользователь</title><rect fill="#FFFFFF" height="1502.25" style="stroke:#181818;stroke-width:1;" width="10" x="79.5498" y="309.4922"/></g><g><title>МП IYM</title><rect fill="#FFFFFF" height="29.1328" style="stroke:#181818;stroke-width:1;" width="10" x="282.4165" y="208.0938"/></g><g><title>МП IYM</title><rect fill="#FFFFFF" height="1502.25" style="stroke:#181818;stroke-width:1;" width="10" x="282.4165" y="309.4922"/></g><g><title>IYM Backend</title><rect fill="#FFFFFF" height="1385.7188" style="stroke:#181818;stroke-width:1;" width="10" x="504.1611" y="396.8906"/></g><g><title>Redis</title><rect fill="#FFFFFF" height="111.5313" style="stroke:#181818;stroke-width:1;" width="10" x="855.4316" y="469.1563"/></g><g><title>Redis</title><rect fill="#FFFFFF" height="29.1328" style="stroke:#181818;stroke-width:1;" width="10" x="855.4316" y="741.1563"/></g><g><title>Redis</title><rect fill="#FFFFFF" height="53.2656" style="stroke:#181818;stroke-width:1;" width="10" x="855.4316" y="1114.8828"/></g><g><title>DB.MOBILEN</title><rect fill="#FFFFFF" height="87.3984" style="stroke:#181818;stroke-width:1;" width="10" x="943.0298" y="624.625"/></g><g><title>DB.MOBILEN</title><rect fill="#FFFFFF" height="162.7969" style="stroke:#181818;stroke-width:1;" width="10" x="943.0298" y="849.5547"/></g><g><title>DB.MOBILEN</title><rect fill="#FFFFFF" height="29.1328" style="stroke:#181818;stroke-width:1;" width="10" x="943.0298" y="1056.6172"/></g><g><title>DB.MOBILEN</title><rect fill="#FFFFFF" height="197.9297" style="stroke:#181818;stroke-width:1;" width="10" x="943.0298" y="1212.0859"/></g><g><title>Процессинг</title><rect fill="#FFFFFF" height="29.1328" style="stroke:#181818;stroke-width:1;" width="10" x="1054.9844" y="1463.2813"/></g><rect fill="none" height="265" style="stroke:#000000;stroke-width:1.5;" width="562.0469" x="447.3755" y="513.2891"/><rect fill="none" height="119.6641" style="stroke:#000000;stroke-width:1.5;" width="989.4224" x="20" y="864.5547"/><rect fill="none" height="466.0625" style="stroke:#000000;stroke-width:1.5;" width="1120.5464" x="10" y="1129.8828"/><rect fill="none" height="119.6641" style="stroke:#000000;stroke-width:1.5;" width="989.4224" x="20" y="1262.2188"/><rect fill="none" height="75.3984" style="stroke:#000000;stroke-width:1.5;" width="673.1709" x="447.3755" y="1425.0156"/><rect fill="none" height="59.2656" style="stroke:#000000;stroke-width:1.5;" width="220.7456" x="447.3755" y="1695.2109"/><g><title>Пользователь</title><rect fill="#000000" fill-opacity="0.00000" height="1748.4453" width="8" x="80.5498" y="81.2969"/><line style="stroke:#181818;stroke-width:0.5;stroke-dasharray:5.0,5.0;" x1="84" x2="84" y1="81.2969" y2="1829.7422"/></g><g><title>МП IYM</title><rect fill="#000000" fill-opacity="0.00000" height="1748.4453" width="8" x="283.4165" y="81.2969"/><line style="stroke:#181818;stroke-width:0.5;stroke-dasharray:5.0,5.0;" x1="286.5083" x2="286.5083" y1="81.2969" y2="1829.7422"/></g><g><title>IYM Backend</title><rect fill="#000000" fill-opacity="0.00000" height="1748.4453" width="8" x="505.1611" y="81.2969"/><line style="stroke:#181818;stroke-width:0.5;stroke-dasharray:5.0,5.0;" x1="508.3755" x2="508.3755" y1="81.2969" y2="1829.7422"/></g><g><title>Redis</title><rect fill="#000000" fill-opacity="0.00000" height="1748.4453" width="8" x="856.4316" y="81.2969"/><line style="stroke:#181818;stroke-width:0.5;stroke-dasharray:5.0,5.0;" x1="860.2261" x2="860.2261" y1="81.2969" y2="1829.7422"/></g><g><title>DB.MOBILEN</title><rect fill="#000000" fill-opacity="0.00000" height="1748.4453" width="8" x="944.0298" y="81.2969"/><line style="stroke:#181818;stroke-width:0.5;stroke-dasharray:5.0,5.0;" x1="947.6372" x2="947.6372" y1="81.2969" y2="1829.7422"/></g><g><title>Процессинг</title><rect fill="#000000" fill-opacity="0.00000" height="1748.4453" width="8" x="1055.9844" y="81.2969"/><line style="stroke:#181818;stroke-width:0.5;stroke-dasharray:5.0,5.0;" x1="1059.4224" x2="1059.4224" y1="81.2969" y2="1829.7422"/></g><g class="participant participant-head" data-participant="User"><text fill="#000000" font-family="sans-serif" font-size="14" lengthAdjust="spacing" textLength="103.0996" x="30" y="77.9951">Пользователь</text><ellipse cx="84.5498" cy="13.5" fill="#E2E2F0" rx="8" ry="8" style="stroke:#181818;stroke-width:0.5;"/><path d="M84.5498,21.5 L84.5498,48.5 M71.5498,29.5 L97.5498,29.5 M84.5498,48.5 L71.5498,63.5 M84.5498,48.5 L97.5498,63.5" fill="none" style="stroke:#181818;stroke-width:0.5;"/></g><g class="participant participant-tail" data-participant="User"><text fill="#000000" font-family="sans-serif" font-size="14" lengthAdjust="spacing" textLength="103.0996" x="30" y="1841.7373">Пользователь</text><ellipse cx="84.5498" cy="1853.5391" fill="#E2E2F0" rx="8" ry="8" style="stroke:#181818;stroke-width:0.5;"/><path d="M84.5498,1861.5391 L84.5498,1888.5391 M71.5498,1869.5391 L97.5498,1869.5391 M84.5498,1888.5391 L71.5498,1903.5391 M84.5498,1888.5391 L97.5498,1903.5391" fill="none" style="stroke:#181818;stroke-width:0.5;"/></g><g class="participant participant-head" data-participant="App"><rect fill="#E2E2F0" height="30.2969" rx="2.5" ry="2.5" style="stroke:#181818;stroke-width:0.5;" width="65.8164" x="254.5083" y="50"/><text fill="#000000" font-family="sans-serif" font-size="14" lengthAdjust="spacing" textLength="51.8164" x="261.5083" y="69.9951">МП IYM</text></g><g class="participant participant-tail" data-participant="App"><rect fill="#E2E2F0" height="30.2969" rx="2.5" ry="2.5" style="stroke:#181818;stroke-width:0.5;" width="65.8164" x="254.5083" y="1828.7422"/><text fill="#000000" font-family="sans-serif" font-size="14" lengthAdjust="spacing" textLength="51.8164" x="261.5083" y="1848.7373">МП IYM</text></g><g class="participant participant-head" data-participant="BE"><rect fill="#E2E2F0" height="30.2969" rx="2.5" ry="2.5" style="stroke:#181818;stroke-width:0.5;" width="103.5713" x="457.3755" y="50"/><text fill="#000000" font-family="sans-serif" font-size="14" lengthAdjust="spacing" textLength="89.5713" x="464.3755" y="69.9951">IYM Backend</text></g><g class="participant participant-tail" data-participant="BE"><rect fill="#E2E2F0" height="30.2969" rx="2.5" ry="2.5" style="stroke:#181818;stroke-width:0.5;" width="103.5713" x="457.3755" y="1828.7422"/><text fill="#000000" font-family="sans-serif" font-size="14" lengthAdjust="spacing" textLength="89.5713" x="464.3755" y="1848.7373">IYM Backend</text></g><g class="participant participant-head" data-participant="Redis"><rect fill="#E2E2F0" height="30.2969" rx="2.5" ry="2.5" style="stroke:#181818;stroke-width:0.5;" width="52.4111" x="834.2261" y="50"/><text fill="#000000" font-family="sans-serif" font-size="14" lengthAdjust="spacing" textLength="38.4111" x="841.2261" y="69.9951">Redis</text></g><g class="participant participant-tail" data-participant="Redis"><rect fill="#E2E2F0" height="30.2969" rx="2.5" ry="2.5" style="stroke:#181818;stroke-width:0.5;" width="52.4111" x="834.2261" y="1828.7422"/><text fill="#000000" font-family="sans-serif" font-size="14" lengthAdjust="spacing" textLength="38.4111" x="841.2261" y="1848.7373">Redis</text></g><g class="participant participant-head" data-participant="DB"><rect fill="#E2E2F0" height="30.2969" rx="2.5" ry="2.5" style="stroke:#181818;stroke-width:0.5;" width="102.7852" x="896.6372" y="50"/><text fill="#000000" font-family="sans-serif" font-size="14" lengthAdjust="spacing" textLength="88.7852" x="903.6372" y="69.9951">DB.MOBILEN</text></g><g class="participant participant-tail" data-participant="DB"><rect fill="#E2E2F0" height="30.2969" rx="2.5" ry="2.5" style="stroke:#181818;stroke-width:0.5;" width="102.7852" x="896.6372" y="1828.7422"/><text fill="#000000" font-family="sans-serif" font-size="14" lengthAdjust="spacing" textLength="88.7852" x="903.6372" y="1848.7373">DB.MOBILEN</text></g><g class="participant participant-head" data-participant="Processing"><rect fill="#E2E2F0" height="30.2969" rx="2.5" ry="2.5" style="stroke:#181818;stroke-width:0.5;" width="101.124" x="1009.4224" y="50"/><text fill="#000000" font-family="sans-serif" font-size="14" lengthAdjust="spacing" textLength="87.124" x="1016.4224" y="69.9951">Процессинг</text></g><g class="participant participant-tail" data-participant="Processing"><rect fill="#E2E2F0" height="30.2969" rx="2.5" ry="2.5" style="stroke:#181818;stroke-width:0.5;" width="101.124" x="1009.4224" y="1828.7422"/><text fill="#000000" font-family="sans-serif" font-size="14" lengthAdjust="spacing" textLength="87.124" x="1016.4224" y="1848.7373">Процессинг</text></g><g><title>Пользователь</title><rect fill="#FFFFFF" height="29.1328" style="stroke:#181818;stroke-width:1;" width="10" x="79.5498" y="208.0938"/></g><g><title>Пользователь</title><rect fill="#FFFFFF" height="1502.25" style="stroke:#181818;stroke-width:1;" width="10" x="79.5498" y="309.4922"/></g><g><title>МП IYM</title><rect fill="#FFFFFF" height="29.1328" style="stroke:#181818;stroke-width:1;" width="10" x="282.4165" y="208.0938"/></g><g><title>МП IYM</title><rect fill="#FFFFFF" height="1502.25" style="stroke:#181818;stroke-width:1;" width="10" x="282.4165" y="309.4922"/></g><g><title>IYM Backend</title><rect fill="#FFFFFF" height="1385.7188" style="stroke:#181818;stroke-width:1;" width="10" x="504.1611" y="396.8906"/></g><g><title>Redis</title><rect fill="#FFFFFF" height="111.5313" style="stroke:#181818;stroke-width:1;" width="10" x="855.4316" y="469.1563"/></g><g><title>Redis</title><rect fill="#FFFFFF" height="29.1328" style="stroke:#181818;stroke-width:1;" width="10" x="855.4316" y="741.1563"/></g><g><title>Redis</title><rect fill="#FFFFFF" height="53.2656" style="stroke:#181818;stroke-width:1;" width="10" x="855.4316" y="1114.8828"/></g><g><title>DB.MOBILEN</title><rect fill="#FFFFFF" height="87.3984" style="stroke:#181818;stroke-width:1;" width="10" x="943.0298" y="624.625"/></g><g><title>DB.MOBILEN</title><rect fill="#FFFFFF" height="162.7969" style="stroke:#181818;stroke-width:1;" width="10" x="943.0298" y="849.5547"/></g><g><title>DB.MOBILEN</title><rect fill="#FFFFFF" height="29.1328" style="stroke:#181818;stroke-width:1;" width="10" x="943.0298" y="1056.6172"/></g><g><title>DB.MOBILEN</title><rect fill="#FFFFFF" height="197.9297" style="stroke:#181818;stroke-width:1;" width="10" x="943.0298" y="1212.0859"/></g><g><title>Процессинг</title><rect fill="#FFFFFF" height="29.1328" style="stroke:#181818;stroke-width:1;" width="10" x="1054.9844" y="1463.2813"/></g><path d="M130,96.2969 L130,181.2969 L443,181.2969 L443,106.2969 L433,96.2969 L130,96.2969" fill="#FEFFDD" style="stroke:#181818;stroke-width:0.5;"/><path d="M433,96.2969 L433,106.2969 L443,106.2969 L433,96.2969" fill="#FEFFDD" style="stroke:#181818;stroke-width:0.5;"/><text fill="#000000" font-family="sans-serif" font-size="13" lengthAdjust="spacing" textLength="49.8989" x="136" y="113.3638">Этап 2:</text><text fill="#000000" font-family="sans-serif" font-size="13" lengthAdjust="spacing" textLength="292.1382" x="136" y="128.4966">- Заменили user_not_found приглашением;</text><text fill="#000000" font-family="sans-serif" font-size="13" lengthAdjust="spacing" textLength="265.7319" x="136" y="143.6294">- Заменили no_main_card сообщением;</text><text fill="#000000" font-family="sans-serif" font-size="13" lengthAdjust="spacing" textLength="192.3086" x="136" y="158.7622">- Возвращаем все карты IYB</text><ellipse cx="141.5" cy="169.4609" fill="#000000" rx="2.5" ry="2.5"/><text fill="#000000" font-family="sans-serif" font-size="13" lengthAdjust="spacing" textLength="158.9834" x="148" y="173.895">Механики те же самые</text><g class="message" data-participant-1="User" data-participant-2="App"><polygon fill="#181818" points="270.4165,204.0938,280.4165,208.0938,270.4165,212.0938,274.4165,208.0938" style="stroke:#181818;stroke-width:1;"/><line style="stroke:#181818;stroke-width:1;" x1="89.5498" x2="276.4165" y1="208.0938" y2="208.0938"/><text fill="#000000" font-family="sans-serif" font-size="13" lengthAdjust="spacing" textLength="122.6938" x="96.5498" y="203.0278">Перевод на карту</text></g><g class="message" data-participant-1="App" data-participant-2="User"><polygon fill="#181818" points="95.5498,233.2266,85.5498,237.2266,95.5498,241.2266,91.5498,237.2266" style="stroke:#181818;stroke-width:1;"/><line style="stroke:#181818;stroke-width:1;" x1="89.5498" x2="286.4165" y1="237.2266" y2="237.2266"/><text fill="#000000" font-family="sans-serif" font-size="13" lengthAdjust="spacing" textLength="111.0967" x="101.5498" y="232.1606">Экран перевода</text></g><rect fill="#EEEEEE" height="3" style="stroke:#EEEEEE;stroke-width:1;" width="1140.5464" x="0" y="265.793"/><line style="stroke:#000000;stroke-width:1;" x1="0" x2="1140.5464" y1="265.793" y2="265.793"/><line style="stroke:#000000;stroke-width:1;" x1="0" x2="1140.5464" y1="268.793" y2="268.793"/><rect fill="#EEEEEE" height="23.1328" style="stroke:#000000;stroke-width:2;" width="136.5542" x="501.9961" y="255.2266"/><text fill="#000000" font-family="sans-serif" font-size="13" font-weight="bold" lengthAdjust="spacing" textLength="122.5542" x="507.9961" y="271.2935">v1/card/byphone</text><g class="message" data-participant-1="User" data-participant-2="App"><polygon fill="#181818" points="270.4165,305.4922,280.4165,309.4922,270.4165,313.4922,274.4165,309.4922" style="stroke:#181818;stroke-width:1;"/><line style="stroke:#181818;stroke-width:1;" x1="89.5498" x2="276.4165" y1="309.4922" y2="309.4922"/><text fill="#000000" font-family="sans-serif" font-size="13" lengthAdjust="spacing" textLength="143.6094" x="96.5498" y="304.4263">По номеру телефона</text></g><g class="message" data-participant-1="App" data-participant-2="User"><polygon fill="#181818" points="100.5498,334.625,90.5498,338.625,100.5498,342.625,96.5498,338.625" style="stroke:#181818;stroke-width:1;"/><line style="stroke:#181818;stroke-width:1;" x1="94.5498" x2="281.4165" y1="338.625" y2="338.625"/><text fill="#000000" font-family="sans-serif" font-size="13" lengthAdjust="spacing" textLength="144.1426" x="106.5498" y="333.5591">Форма ввода номера</text></g><g class="message" data-participant-1="User" data-participant-2="App"><polygon fill="#181818" points="270.4165,363.7578,280.4165,367.7578,270.4165,371.7578,274.4165,367.7578" style="stroke:#181818;stroke-width:1;"/><line style="stroke:#181818;stroke-width:1;" x1="89.5498" x2="276.4165" y1="367.7578" y2="367.7578"/><text fill="#000000" font-family="sans-serif" font-size="13" lengthAdjust="spacing" textLength="104.9648" x="96.5498" y="362.6919">998XXXXXXXXX</text></g><g class="message" data-participant-1="App" data-participant-2="BE"><polygon fill="#181818" points="492.1611,392.8906,502.1611,396.8906,492.1611,400.8906,496.1611,396.8906" style="stroke:#181818;stroke-width:1;"/><line style="stroke:#181818;stroke-width:1;" x1="292.4165" x2="498.1611" y1="396.8906" y2="396.8906"/><text fill="#000000" font-family="sans-serif" font-size="13" font-weight="bold" lengthAdjust="spacing" textLength="122.5542" x="299.4165" y="391.8247">v1/card/byphone</text></g><rect fill="#EEEEEE" height="3" style="stroke:#EEEEEE;stroke-width:1;" width="1140.5464" x="0" y="425.457"/><line style="stroke:#000000;stroke-width:1;" x1="0" x2="1140.5464" y1="425.457" y2="425.457"/><line style="stroke:#000000;stroke-width:1;" x1="0" x2="1140.5464" y1="428.457" y2="428.457"/><rect fill="#EEEEEE" height="23.1328" style="stroke:#000000;stroke-width:2;" width="155.1528" x="492.6968" y="414.8906"/><text fill="#000000" font-family="sans-serif" font-size="13" font-weight="bold" lengthAdjust="spacing" textLength="141.1528" x="498.6968" y="430.9575">Банки и префиксы</text><g class="message" data-participant-1="BE" data-participant-2="Redis"><polygon fill="#181818" points="843.4316,465.1563,853.4316,469.1563,843.4316,473.1563,847.4316,469.1563" style="stroke:#181818;stroke-width:1;"/><line style="stroke:#181818;stroke-width:1;" x1="514.1611" x2="849.4316" y1="469.1563" y2="469.1563"/><text fill="#000000" font-family="sans-serif" font-size="13" lengthAdjust="spacing" textLength="143.8696" x="521.1611" y="464.0903">cards_byphone_banks</text></g><g class="message" data-participant-1="BE" data-participant-2="Redis"><polygon fill="#181818" points="843.4316,494.2891,853.4316,498.2891,843.4316,502.2891,847.4316,498.2891" style="stroke:#181818;stroke-width:1;"/><line style="stroke:#181818;stroke-width:1;" x1="514.1611" x2="849.4316" y1="498.2891" y2="498.2891"/><text fill="#000000" font-family="sans-serif" font-size="13" lengthAdjust="spacing" textLength="231.0547" x="521.1611" y="493.2231">cards_byphone_bank_card_prefixes</text></g><path d="M447.3755,513.2891 L511.8184,513.2891 L511.8184,520.4219 L501.8184,530.4219 L447.3755,530.4219 L447.3755,513.2891" fill="#EEEEEE" style="stroke:#000000;stroke-width:1.5;"/><rect fill="none" height="265" style="stroke:#000000;stroke-width:1.5;" width="562.0469" x="447.3755" y="513.2891"/><text fill="#000000" font-family="sans-serif" font-size="13" font-weight="bold" lengthAdjust="spacing" textLength="19.4429" x="462.3755" y="526.356">alt</text><text fill="#000000" font-family="sans-serif" font-size="11" font-weight="bold" lengthAdjust="spacing" textLength="76.4897" x="526.8184" y="525.4995">[Ключ есть]</text><g class="message" data-participant-1="Redis" data-participant-2="BE"><polygon fill="#181818" points="525.1611,547.5547,515.1611,551.5547,525.1611,555.5547,521.1611,551.5547" style="stroke:#181818;stroke-width:1;"/><line style="stroke:#181818;stroke-width:1;" x1="519.1611" x2="854.4316" y1="551.5547" y2="551.5547"/><text fill="#000000" font-family="sans-serif" font-size="13" lengthAdjust="spacing" textLength="41.6851" x="531.1611" y="546.4888">Банки</text></g><g class="message" data-participant-1="Redis" data-participant-2="BE"><polygon fill="#181818" points="525.1611,576.6875,515.1611,580.6875,525.1611,584.6875,521.1611,580.6875" style="stroke:#181818;stroke-width:1;"/><line style="stroke:#181818;stroke-width:1;" x1="519.1611" x2="859.4316" y1="580.6875" y2="580.6875"/><text fill="#000000" font-family="sans-serif" font-size="13" lengthAdjust="spacing" textLength="70.8525" x="531.1611" y="575.6216">Префиксы</text></g><line style="stroke:#000000;stroke-width:1;stroke-dasharray:2.0,2.0;" x1="447.3755" x2="1009.4224" y1="589.6875" y2="589.6875"/><text fill="#000000" font-family="sans-serif" font-size="11" font-weight="bold" lengthAdjust="spacing" textLength="78.0366" x="452.3755" y="599.8979">[Ключа нет]</text><g class="message" data-participant-1="BE" data-participant-2="DB"><polygon fill="#181818" points="931.0298,620.625,941.0298,624.625,931.0298,628.625,935.0298,624.625" style="stroke:#181818;stroke-width:1;"/><line style="stroke:#181818;stroke-width:1;" x1="514.1611" x2="937.0298" y1="624.625" y2="624.625"/><text fill="#000000" font-family="sans-serif" font-size="13" lengthAdjust="spacing" textLength="97.2905" x="521.1611" y="619.5591">Записи BANKS</text></g><g class="message" data-participant-1="BE" data-participant-2="DB"><polygon fill="#181818" points="931.0298,649.7578,941.0298,653.7578,931.0298,657.7578,935.0298,653.7578" style="stroke:#181818;stroke-width:1;"/><line style="stroke:#181818;stroke-width:1;" x1="514.1611" x2="937.0298" y1="653.7578" y2="653.7578"/><text fill="#000000" font-family="sans-serif" font-size="13" lengthAdjust="spacing" textLength="200.8208" x="521.1611" y="648.6919">Записи BANK_CARD_PREFIXES</text></g><g class="message" data-participant-1="DB" data-participant-2="BE"><polygon fill="#181818" points="525.1611,678.8906,515.1611,682.8906,525.1611,686.8906,521.1611,682.8906" style="stroke:#181818;stroke-width:1;"/><line style="stroke:#181818;stroke-width:1;" x1="519.1611" x2="942.0298" y1="682.8906" y2="682.8906"/><text fill="#000000" font-family="sans-serif" font-size="13" lengthAdjust="spacing" textLength="41.6851" x="531.1611" y="677.8247">Банки</text></g><g class="message" data-participant-1="DB" data-participant-2="BE"><polygon fill="#181818" points="525.1611,708.0234,515.1611,712.0234,525.1611,716.0234,521.1611,712.0234" style="stroke:#181818;stroke-width:1;"/><line style="stroke:#181818;stroke-width:1;" x1="519.1611" x2="947.0298" y1="712.0234" y2="712.0234"/><text fill="#000000" font-family="sans-serif" font-size="13" lengthAdjust="spacing" textLength="70.8525" x="531.1611" y="706.9575">Префиксы</text></g><g class="message" data-participant-1="BE" data-participant-2="Redis"><polygon fill="#181818" points="843.4316,737.1563,853.4316,741.1563,843.4316,745.1563,847.4316,741.1563" style="stroke:#181818;stroke-width:1;"/><line style="stroke:#181818;stroke-width:1;" x1="514.1611" x2="849.4316" y1="741.1563" y2="741.1563"/><text fill="#000000" font-family="sans-serif" font-size="13" lengthAdjust="spacing" textLength="176.3569" x="521.1611" y="736.0903">cards_byphone_banks, 24ч</text></g><g class="message" data-participant-1="BE" data-participant-2="Redis"><polygon fill="#181818" points="848.4316,766.2891,858.4316,770.2891,848.4316,774.2891,852.4316,770.2891" style="stroke:#181818;stroke-width:1;"/><line style="stroke:#181818;stroke-width:1;" x1="514.1611" x2="854.4316" y1="770.2891" y2="770.2891"/><text fill="#000000" font-family="sans-serif" font-size="13" lengthAdjust="spacing" textLength="263.542" x="521.1611" y="765.2231">cards_byphone_bank_card_prefixes, 24ч</text></g><rect fill="#EEEEEE" height="3" style="stroke:#EEEEEE;stroke-width:1;" width="1140.5464" x="0" y="805.8555"/><line style="stroke:#000000;stroke-width:1;" x1="0" x2="1140.5464" y1="805.8555" y2="805.8555"/><line style="stroke:#000000;stroke-width:1;" x1="0" x2="1140.5464" y1="808.8555" y2="808.8555"/><rect fill="#EEEEEE" height="23.1328" style="stroke:#000000;stroke-width:2;" width="88.877" x="525.8347" y="795.2891"/><text fill="#000000" font-family="sans-serif" font-size="13" font-weight="bold" lengthAdjust="spacing" textLength="74.877" x="531.8347" y="811.356">IYB карты</text><g class="message" data-participant-1="BE" data-participant-2="DB"><polygon fill="#181818" points="931.0298,845.5547,941.0298,849.5547,931.0298,853.5547,935.0298,849.5547" style="stroke:#181818;stroke-width:1;"/><line style="stroke:#181818;stroke-width:1;" x1="514.1611" x2="937.0298" y1="849.5547" y2="849.5547"/><text fill="#000000" font-family="sans-serif" font-size="13" lengthAdjust="spacing" textLength="169.7236" x="521.1611" y="844.4888">Запросить user по phone</text></g><path d="M20,864.5547 L84.4429,864.5547 L84.4429,871.6875 L74.4429,881.6875 L20,881.6875 L20,864.5547" fill="#EEEEEE" style="stroke:#000000;stroke-width:1.5;"/><rect fill="none" height="119.6641" style="stroke:#000000;stroke-width:1.5;" width="989.4224" x="20" y="864.5547"/><text fill="#000000" font-family="sans-serif" font-size="13" font-weight="bold" lengthAdjust="spacing" textLength="19.4429" x="35" y="877.6216">alt</text><text fill="#000000" font-family="sans-serif" font-size="11" font-weight="bold" lengthAdjust="spacing" textLength="106.7129" x="99.4429" y="876.7651">[user не найден]</text><g class="message" data-participant-1="DB" data-participant-2="BE"><polygon fill="#181818" points="525.1611,898.8203,515.1611,902.8203,525.1611,906.8203,521.1611,902.8203" style="stroke:#181818;stroke-width:1;"/><line style="stroke:#181818;stroke-width:1;" x1="519.1611" x2="942.0298" y1="902.8203" y2="902.8203"/><text fill="#000000" font-family="sans-serif" font-size="13" lengthAdjust="spacing" textLength="51.8477" x="531.1611" y="897.7544">(empty)</text></g><g class="message" data-participant-1="BE" data-participant-2="App"><polygon fill="#181818" points="303.4165,927.9531,293.4165,931.9531,303.4165,935.9531,299.4165,931.9531" style="stroke:#181818;stroke-width:1;"/><line style="stroke:#181818;stroke-width:1;" x1="297.4165" x2="503.1611" y1="931.9531" y2="931.9531"/><text fill="#000000" font-family="sans-serif" font-size="13" lengthAdjust="spacing" textLength="99.7725" x="309.4165" y="926.8872">Пустой список</text></g><g class="message" data-participant-1="App" data-participant-2="User"><polygon fill="#181818" points="100.5498,972.2188,90.5498,976.2188,100.5498,980.2188,96.5498,976.2188" style="stroke:#181818;stroke-width:1;"/><line style="stroke:#181818;stroke-width:1;" x1="94.5498" x2="281.4165" y1="976.2188" y2="976.2188"/><text fill="#000000" font-family="sans-serif" font-size="13" lengthAdjust="spacing" textLength="65.2539" x="106.5498" y="956.02">Нет карт,</text><text fill="#000000" font-family="sans-serif" font-size="13" lengthAdjust="spacing" textLength="168.8667" x="106.5498" y="971.1528">отправить приглашение</text></g><g class="message" data-participant-1="DB" data-participant-2="BE"><polygon fill="#181818" points="525.1611,1008.3516,515.1611,1012.3516,525.1611,1016.3516,521.1611,1012.3516" style="stroke:#181818;stroke-width:1;"/><line style="stroke:#181818;stroke-width:1;" x1="519.1611" x2="947.0298" y1="1012.3516" y2="1012.3516"/><text fill="#000000" font-family="sans-serif" font-size="13" lengthAdjust="spacing" textLength="95.7354" x="531.1611" y="1007.2856">Пользователь</text></g><g class="message" data-participant-1="BE" data-participant-2="DB"><polygon fill="#181818" points="931.0298,1052.6172,941.0298,1056.6172,931.0298,1060.6172,935.0298,1056.6172" style="stroke:#181818;stroke-width:1;"/><line style="stroke:#181818;stroke-width:1;" x1="514.1611" x2="937.0298" y1="1056.6172" y2="1056.6172"/><text fill="#000000" font-family="sans-serif" font-size="13" lengthAdjust="spacing" textLength="218.2896" x="521.1611" y="1036.4185">Крайний users_cards.updated_at</text><text fill="#000000" font-family="sans-serif" font-size="13" lengthAdjust="spacing" textLength="136.1953" x="521.1611" y="1051.5513">этого пользователя</text></g><g class="message" data-participant-1="DB" data-participant-2="BE"><polygon fill="#181818" points="525.1611,1081.75,515.1611,1085.75,525.1611,1089.75,521.1611,1085.75" style="stroke:#181818;stroke-width:1;"/><line style="stroke:#181818;stroke-width:1;" x1="519.1611" x2="947.0298" y1="1085.75" y2="1085.75"/><text fill="#000000" font-family="sans-serif" font-size="13" lengthAdjust="spacing" textLength="160.1387" x="531.1611" y="1080.6841">Последнее обновление</text></g><g class="message" data-participant-1="BE" data-participant-2="Redis"><polygon fill="#181818" points="843.4316,1110.8828,853.4316,1114.8828,843.4316,1118.8828,847.4316,1114.8828" style="stroke:#181818;stroke-width:1;"/><line style="stroke:#181818;stroke-width:1;" x1="514.1611" x2="849.4316" y1="1114.8828" y2="1114.8828"/><text fill="#000000" font-family="sans-serif" font-size="13" lengthAdjust="spacing" textLength="318.1382" x="521.1611" y="1109.8169">cards_byphone_iyb_{{phone}}_{{updated_at}}</text></g><path d="M10,1129.8828 L74.4429,1129.8828 L74.4429,1137.0156 L64.4429,1147.0156 L10,1147.0156 L10,1129.8828" fill="#EEEEEE" style="stroke:#000000;stroke-width:1.5;"/><rect fill="none" height="466.0625" style="stroke:#000000;stroke-width:1.5;" width="1120.5464" x="10" y="1129.8828"/><text fill="#000000" font-family="sans-serif" font-size="13" font-weight="bold" lengthAdjust="spacing" textLength="19.4429" x="25" y="1142.9497">alt</text><text fill="#000000" font-family="sans-serif" font-size="11" font-weight="bold" lengthAdjust="spacing" textLength="76.4897" x="89.4429" y="1142.0933">[Ключ есть]</text><g class="message" data-participant-1="Redis" data-participant-2="BE"><polygon fill="#181818" points="525.1611,1164.1484,515.1611,1168.1484,525.1611,1172.1484,521.1611,1168.1484" style="stroke:#181818;stroke-width:1;"/><line style="stroke:#181818;stroke-width:1;" x1="519.1611" x2="859.4316" y1="1168.1484" y2="1168.1484"/><text fill="#000000" font-family="sans-serif" font-size="13" lengthAdjust="spacing" textLength="68.1104" x="531.1611" y="1163.0825">Карты IYB</text></g><line style="stroke:#000000;stroke-width:1;stroke-dasharray:2.0,2.0;" x1="10" x2="1130.5464" y1="1177.1484" y2="1177.1484"/><text fill="#000000" font-family="sans-serif" font-size="11" font-weight="bold" lengthAdjust="spacing" textLength="78.0366" x="15" y="1187.3589">[Ключа нет]</text><g class="message" data-participant-1="BE" data-participant-2="DB"><polygon fill="#181818" points="931.0298,1208.0859,941.0298,1212.0859,931.0298,1216.0859,935.0298,1212.0859" style="stroke:#181818;stroke-width:1;"/><line style="stroke:#181818;stroke-width:1;" x1="514.1611" x2="937.0298" y1="1212.0859" y2="1212.0859"/><text fill="#000000" font-family="sans-serif" font-size="13" lengthAdjust="spacing" textLength="142.0352" x="521.1611" y="1207.02">Карты пользователя</text></g><path d="M891,1225.0859 L891,1250.0859 L1003,1250.0859 L1003,1235.0859 L993,1225.0859 L891,1225.0859" fill="#87CEEB" style="stroke:#181818;stroke-width:0.5;"/><path d="M993,1225.0859 L993,1235.0859 L1003,1235.0859 L993,1225.0859" fill="#87CEEB" style="stroke:#181818;stroke-width:0.5;"/><text fill="#000000" font-family="sans-serif" font-size="13" lengthAdjust="spacing" textLength="91.6475" x="897" y="1242.1528">STATE=active</text><path d="M20,1262.2188 L84.4429,1262.2188 L84.4429,1269.3516 L74.4429,1279.3516 L20,1279.3516 L20,1262.2188" fill="#EEEEEE" style="stroke:#000000;stroke-width:1.5;"/><rect fill="none" height="119.6641" style="stroke:#000000;stroke-width:1.5;" width="989.4224" x="20" y="1262.2188"/><text fill="#000000" font-family="sans-serif" font-size="13" font-weight="bold" lengthAdjust="spacing" textLength="19.4429" x="35" y="1275.2856">alt</text><text fill="#000000" font-family="sans-serif" font-size="11" font-weight="bold" lengthAdjust="spacing" textLength="65.9839" x="99.4429" y="1274.4292">[Карт нет]</text><g class="message" data-participant-1="DB" data-participant-2="BE"><polygon fill="#181818" points="525.1611,1296.4844,515.1611,1300.4844,525.1611,1304.4844,521.1611,1300.4844" style="stroke:#181818;stroke-width:1;"/><line style="stroke:#181818;stroke-width:1;" x1="519.1611" x2="942.0298" y1="1300.4844" y2="1300.4844"/><text fill="#000000" font-family="sans-serif" font-size="13" lengthAdjust="spacing" textLength="51.8477" x="531.1611" y="1295.4185">(empty)</text></g><g class="message" data-participant-1="BE" data-participant-2="App"><polygon fill="#181818" points="303.4165,1325.6172,293.4165,1329.6172,303.4165,1333.6172,299.4165,1329.6172" style="stroke:#181818;stroke-width:1;"/><line style="stroke:#181818;stroke-width:1;" x1="297.4165" x2="503.1611" y1="1329.6172" y2="1329.6172"/><text fill="#000000" font-family="sans-serif" font-size="13" lengthAdjust="spacing" textLength="187.7446" x="309.4165" y="1324.5513">Банк IYM с пустым списком</text></g><g class="message" data-participant-1="App" data-participant-2="User"><polygon fill="#181818" points="100.5498,1369.8828,90.5498,1373.8828,100.5498,1377.8828,96.5498,1373.8828" style="stroke:#181818;stroke-width:1;"/><line style="stroke:#181818;stroke-width:1;" x1="94.5498" x2="281.4165" y1="1373.8828" y2="1373.8828"/><text fill="#000000" font-family="sans-serif" font-size="13" lengthAdjust="spacing" textLength="135.2622" x="106.5498" y="1353.6841">Карт не добавлено,</text><text fill="#000000" font-family="sans-serif" font-size="13" lengthAdjust="spacing" textLength="151.9819" x="106.5498" y="1368.8169">отправить сообщение</text></g><g class="message" data-participant-1="DB" data-participant-2="BE"><polygon fill="#181818" points="525.1611,1406.0156,515.1611,1410.0156,525.1611,1414.0156,521.1611,1410.0156" style="stroke:#181818;stroke-width:1;"/><line style="stroke:#181818;stroke-width:1;" x1="519.1611" x2="947.0298" y1="1410.0156" y2="1410.0156"/><text fill="#000000" font-family="sans-serif" font-size="13" lengthAdjust="spacing" textLength="68.1104" x="531.1611" y="1404.9497">Карты IYB</text></g><path d="M447.3755,1425.0156 L523.9995,1425.0156 L523.9995,1432.1484 L513.9995,1442.1484 L447.3755,1442.1484 L447.3755,1425.0156" fill="#EEEEEE" style="stroke:#000000;stroke-width:1.5;"/><rect fill="none" height="75.3984" style="stroke:#000000;stroke-width:1.5;" width="673.1709" x="447.3755" y="1425.0156"/><text fill="#000000" font-family="sans-serif" font-size="13" font-weight="bold" lengthAdjust="spacing" textLength="31.624" x="462.3755" y="1438.0825">loop</text><text fill="#000000" font-family="sans-serif" font-size="11" font-weight="bold" lengthAdjust="spacing" textLength="74.9375" x="538.9995" y="1437.2261">[Карты IYB]</text><g class="message" data-participant-1="BE" data-participant-2="Processing"><polygon fill="#181818" points="1042.9844,1459.2813,1052.9844,1463.2813,1042.9844,1467.2813,1046.9844,1463.2813" style="stroke:#181818;stroke-width:1;"/><line style="stroke:#181818;stroke-width:1;" x1="514.1611" x2="1048.9844" y1="1463.2813" y2="1463.2813"/><text fill="#000000" font-family="sans-serif" font-size="13" lengthAdjust="spacing" textLength="135.5796" x="521.1611" y="1458.2153">getCardHolderByPan</text></g><g class="message" data-participant-1="Processing" data-participant-2="BE"><polygon fill="#181818" points="525.1611,1488.4141,515.1611,1492.4141,525.1611,1496.4141,521.1611,1492.4141" style="stroke:#181818;stroke-width:1;"/><line style="stroke:#181818;stroke-width:1;" x1="519.1611" x2="1058.9844" y1="1492.4141" y2="1492.4141"/><text fill="#000000" font-family="sans-serif" font-size="13" lengthAdjust="spacing" textLength="91.7236" x="531.1611" y="1487.3481">Имя на карте</text></g><g class="message" data-participant-1="BE" data-participant-2="Redis"><polygon fill="#181818" points="848.4316,1539.6797,858.4316,1543.6797,848.4316,1547.6797,852.4316,1543.6797" style="stroke:#181818;stroke-width:1;"/><line style="stroke:#181818;stroke-width:1;" x1="514.1611" x2="854.4316" y1="1543.6797" y2="1543.6797"/><text fill="#000000" font-family="sans-serif" font-size="13" lengthAdjust="spacing" textLength="217.9341" x="521.1611" y="1523.481">cards_byphone_iyb_{{phone}}_*</text><text fill="#000000" font-family="sans-serif" font-size="13" lengthAdjust="spacing" textLength="56.8687" x="521.1611" y="1538.6138">Удалить</text></g><g class="message" data-participant-1="BE" data-participant-2="Redis"><polygon fill="#181818" points="848.4316,1583.9453,858.4316,1587.9453,848.4316,1591.9453,852.4316,1587.9453" style="stroke:#181818;stroke-width:1;"/><line style="stroke:#181818;stroke-width:1;" x1="514.1611" x2="854.4316" y1="1587.9453" y2="1587.9453"/><text fill="#000000" font-family="sans-serif" font-size="13" lengthAdjust="spacing" textLength="318.1382" x="521.1611" y="1567.7466">cards_byphone_iyb_{{phone}}_{{updated_at}}</text><text fill="#000000" font-family="sans-serif" font-size="13" lengthAdjust="spacing" textLength="68.1104" x="521.1611" y="1582.8794">Карты IYB</text></g><g class="message" data-participant-1="BE" data-participant-2="BE"><line style="stroke:#181818;stroke-width:1;" x1="514.1611" x2="556.1611" y1="1624.0781" y2="1624.0781"/><line style="stroke:#181818;stroke-width:1;" x1="556.1611" x2="556.1611" y1="1624.0781" y2="1637.0781"/><line style="stroke:#181818;stroke-width:1;" x1="515.1611" x2="556.1611" y1="1637.0781" y2="1637.0781"/><polygon fill="#181818" points="525.1611,1633.0781,515.1611,1637.0781,525.1611,1641.0781,521.1611,1637.0781" style="stroke:#181818;stroke-width:1;"/><text fill="#000000" font-family="sans-serif" font-size="13" lengthAdjust="spacing" textLength="135.2432" x="521.1611" y="1619.0122">Карты IYB -&gt; Карты</text></g><rect fill="#EEEEEE" height="3" style="stroke:#EEEEEE;stroke-width:1;" width="1140.5464" x="0" y="1665.6445"/><line style="stroke:#000000;stroke-width:1;" x1="0" x2="1140.5464" y1="1665.6445" y2="1665.6445"/><line style="stroke:#000000;stroke-width:1;" x1="0" x2="1140.5464" y1="1668.6445" y2="1668.6445"/><rect fill="#EEEEEE" height="23.1328" style="stroke:#000000;stroke-width:2;" width="146.1836" x="497.1814" y="1655.0781"/><text fill="#000000" font-family="sans-serif" font-size="13" font-weight="bold" lengthAdjust="spacing" textLength="132.1836" x="503.1814" y="1671.145">Связка с банками</text><path d="M447.3755,1695.2109 L523.9995,1695.2109 L523.9995,1702.3438 L513.9995,1712.3438 L447.3755,1712.3438 L447.3755,1695.2109" fill="#EEEEEE" style="stroke:#000000;stroke-width:1.5;"/><rect fill="none" height="59.2656" style="stroke:#000000;stroke-width:1.5;" width="220.7456" x="447.3755" y="1695.2109"/><text fill="#000000" font-family="sans-serif" font-size="13" font-weight="bold" lengthAdjust="spacing" textLength="31.624" x="462.3755" y="1708.2778">loop</text><text fill="#000000" font-family="sans-serif" font-size="11" font-weight="bold" lengthAdjust="spacing" textLength="50.6655" x="538.9995" y="1707.4214">[Карты]</text><g class="message" data-participant-1="BE" data-participant-2="BE"><line style="stroke:#181818;stroke-width:1;" x1="514.1611" x2="556.1611" y1="1733.4766" y2="1733.4766"/><line style="stroke:#181818;stroke-width:1;" x1="556.1611" x2="556.1611" y1="1733.4766" y2="1746.4766"/><line style="stroke:#181818;stroke-width:1;" x1="515.1611" x2="556.1611" y1="1746.4766" y2="1746.4766"/><polygon fill="#181818" points="525.1611,1742.4766,515.1611,1746.4766,525.1611,1750.4766,521.1611,1746.4766" style="stroke:#181818;stroke-width:1;"/><text fill="#000000" font-family="sans-serif" font-size="13" lengthAdjust="spacing" textLength="124.96" x="521.1611" y="1728.4106">Банк по префиксу</text></g><g class="message" data-participant-1="BE" data-participant-2="App"><polygon fill="#181818" points="303.4165,1778.6094,293.4165,1782.6094,303.4165,1786.6094,299.4165,1782.6094" style="stroke:#181818;stroke-width:1;"/><line style="stroke:#181818;stroke-width:1;" x1="297.4165" x2="508.1611" y1="1782.6094" y2="1782.6094"/><text fill="#000000" font-family="sans-serif" font-size="13" lengthAdjust="spacing" textLength="84.7539" x="309.4165" y="1777.5435">Список карт</text></g><g class="message" data-participant-1="App" data-participant-2="User"><polygon fill="#181818" points="95.5498,1807.7422,85.5498,1811.7422,95.5498,1815.7422,91.5498,1811.7422" style="stroke:#181818;stroke-width:1;"/><line style="stroke:#181818;stroke-width:1;" x1="89.5498" x2="286.4165" y1="1811.7422" y2="1811.7422"/><text fill="#000000" font-family="sans-serif" font-size="13" lengthAdjust="spacing" textLength="89.4448" x="101.5498" y="1806.6763">Выбор карты</text></g><!--SRC=[fLPRQnj757xVNp6eBws84nBwa4jLy4OgDKrIOwUGG65PQpU9iBAxQDUc8XXikSq5fp79IuffC25z3QpjRYChrlelpFoZVcTMUr_vqih6rioS-UQSxtpdpEXjp-wnw5FZkppadyLB_Wd_zxal1ZoWSOrMTPVzv9eznT5xNgVTSNJBmuu_-IwRkt-xnf8Fx6OT9sy62wRgxMNJCcgnaThAsooOHiVDu92DdCkRDTMBjtzKvswrxjGIiwPQy6fNhFDGFEM1s10RVCZ7_22rdk_PRTDrEzP3HR5ipsJsgjcJFfC1_uYeVNxChboNund6ts9y12R6GFhCXsm5D6ZOgJsmLoo3yMESDkG7MFF5yubTm8zkJDjlsTfZlMDfRRrdCFWNucTFlAZO-GOhd_W-y7si-xJ6CDpW0UCZpAsBWTW2_whSK6T8Ho1-Wo41ZN0KPP3nV_07c-25sEA1WYmm2bnHAA5ivbiAdbrdI7-0emAaFkH_Cu3uwJ6RIfANjjTPrS6Rb4DfbeYKkD_CnBWV-OX2u6DmbJs2-ybsmwo6pSmJSAEnUlaIyNPfgUyyiYspqIW74PBh8L4EppTPf68CViNaE7Fc-GFv2wfQ1p1usOz3o1m6xBmprwvTlHT_59h2Yjh2GhrUYADUBpk02caq-6kPJaec_PBMA1Aa5zhUGlZ00wgi500JfgjDGBKbtLfsoy1HMPssKUfJSthcWyulfgleNO_n7RI3L-8PavKr42ybDe10KGoKEbork9ltlohFaNTcrpMJyoAM0p688U5uKoKyggrZFgGgP-hidHyM5PPj8J5cKprrftPpTg6fpI-qlfkxrrhC-1wPLqKLhKmBgH1MpeKJqdM1NVbQF9kMjBD0v1DNm2iJRHcG6Nf8fgKaiifG9LigoAAqonP8nHmoUQnIHJW99h8RKnD2vV5350owN972Byt7ZjV_IavJbM1ULWcetIITeRuEgO55wGhvI5eMQlCTwIE9uGBxsOA_0-ctZrgD_AxkrPA3N4ghxq6bEgrPgdRaSOSIzr26xyfqk1TN70FsXgPxS4tyBgCwe5vrN7dOTYMd1IV11XeRI0N3n37k4TcDzkLq5Dj9FbThgDDVqfuyaT_Nrl0jzNnjRPekpzmTTahNrlyf_nJjN3JIEBtw0VN5ud9VxQwaGbwyEtktrP1xeidaqfHOKRJoxAnh9-YwfEr9Gw7N4xHDofHQnmrzb6fzH5TBih-W-Am332AWxFj9xiCf9L1-SCJnbJhRgRcQKDcrRMUQTPIjzCq5t8UcTnE2-zxk6cPFxS_hLZb9cKTQdjWS4ly3Jvhj_4kbMl85l4oqPoo3Eh7vWIvyUiDbrVsVweZGyeHDUb3yGiYlqdGwGy-2ztW7RaFiY5hAPszoFz5JSuZ-NSX9njcy_6GJBpmhDgKpERM-JvjlmdGLptYp55Jw1ehUetTJvduvvxFlNm00]--></g></svg>