<svg xmlns="http://www.w3.org/2000/svg" xmlns:xlink="http://www.w3.org/1999/xlink" contentStyleType="text/css" data-diagram-type="SEQUENCE" height="1592px" preserveAspectRatio="none" style="width:771px;height:1592px;background:#FFFFFF;" version="1.1" viewBox="0 0 771 1592" width="771px" zoomAndPan="magnify"><defs/><g><rect fill="none" height="59.2656" style="stroke:#000000;stroke-width:1.5;" width="205.0615" x="272.1157" y="292.0938"/><rect fill="none" height="643.6094" style="stroke:#000000;stroke-width:1.5;" width="744.23" x="10" y="394.4922"/><rect fill="none" height="230.0781" style="stroke:#000000;stroke-width:1.5;" width="247.7925" x="272.1157" y="801.0234"/><rect fill="none" height="300.1328" style="stroke:#000000;stroke-width:1.5;" width="668.2231" x="10" y="1194.6328"/><g><title>Пользователь</title><rect fill="#000000" fill-opacity="0.00000" height="1430.4688" width="8" x="70.5498" y="81.2969"/><line style="stroke:#181818;stroke-width:0.5;stroke-dasharray:5.0,5.0;" x1="74" x2="74" y1="81.2969" y2="1511.7656"/></g><g><title>МП IYM</title><rect fill="#000000" fill-opacity="0.00000" height="1430.4688" width="8" x="199.5146" y="81.2969"/><line style="stroke:#181818;stroke-width:0.5;stroke-dasharray:5.0,5.0;" x1="202.6064" x2="202.6064" y1="81.2969" y2="1511.7656"/></g><g><title>IYM Backend</title><rect fill="#000000" fill-opacity="0.00000" height="1430.4688" width="8" x="329.9014" y="81.2969"/><line style="stroke:#181818;stroke-width:0.5;stroke-dasharray:5.0,5.0;" x1="333.1157" x2="333.1157" y1="81.2969" y2="1511.7656"/></g><g><title>DB.MOBILEN</title><rect fill="#000000" fill-opacity="0.00000" height="1430.4688" width="8" x="577.7134" y="81.2969"/><line style="stroke:#181818;stroke-width:0.5;stroke-dasharray:5.0,5.0;" x1="581.3208" x2="581.3208" y1="81.2969" y2="1511.7656"/></g><g><title>Процессинг</title><rect fill="#000000" fill-opacity="0.00000" height="1430.4688" width="8" x="689.668" y="81.2969"/><line style="stroke:#181818;stroke-width:0.5;stroke-dasharray:5.0,5.0;" x1="693.106" x2="693.106" y1="81.2969" y2="1511.7656"/></g><g class="participant participant-head" data-participant="User"><text fill="#000000" font-family="sans-serif" font-size="14" lengthAdjust="spacing" textLength="103.0996" x="20" y="77.9951">Пользователь</text><ellipse cx="74.5498" cy="13.5" fill="#E2E2F0" rx="8" ry="8" style="stroke:#181818;stroke-width:0.5;"/><path d="M74.5498,21.5 L74.5498,48.5 M61.5498,29.5 L87.5498,29.5 M74.5498,48.5 L61.5498,63.5 M74.5498,48.5 L87.5498,63.5" fill="none" style="stroke:#181818;stroke-width:0.5;"/></g><g class="participant participant-tail" data-participant="User"><text fill="#000000" font-family="sans-serif" font-size="14" lengthAdjust="spacing" textLength="103.0996" x="20" y="1523.7607">Пользователь</text><ellipse cx="74.5498" cy="1535.5625" fill="#E2E2F0" rx="8" ry="8" style="stroke:#181818;stroke-width:0.5;"/><path d="M74.5498,1543.5625 L74.5498,1570.5625 M61.5498,1551.5625 L87.5498,1551.5625 M74.5498,1570.5625 L61.5498,1585.5625 M74.5498,1570.5625 L87.5498,1585.5625" fill="none" style="stroke:#181818;stroke-width:0.5;"/></g><g class="participant participant-head" data-participant="App"><rect fill="#E2E2F0" height="30.2969" rx="2.5" ry="2.5" style="stroke:#181818;stroke-width:0.5;" width="65.8164" x="170.6064" y="50"/><text fill="#000000" font-family="sans-serif" font-size="14" lengthAdjust="spacing" textLength="51.8164" x="177.6064" y="69.9951">МП IYM</text></g><g class="participant participant-tail" data-participant="App"><rect fill="#E2E2F0" height="30.2969" rx="2.5" ry="2.5" style="stroke:#181818;stroke-width:0.5;" width="65.8164" x="170.6064" y="1510.7656"/><text fill="#000000" font-family="sans-serif" font-size="14" lengthAdjust="spacing" textLength="51.8164" x="177.6064" y="1530.7607">МП IYM</text></g><g class="participant participant-head" data-participant="BE"><rect fill="#E2E2F0" height="30.2969" rx="2.5" ry="2.5" style="stroke:#181818;stroke-width:0.5;" width="103.5713" x="282.1157" y="50"/><text fill="#000000" font-family="sans-serif" font-size="14" lengthAdjust="spacing" textLength="89.5713" x="289.1157" y="69.9951">IYM Backend</text></g><g class="participant participant-tail" data-participant="BE"><rect fill="#E2E2F0" height="30.2969" rx="2.5" ry="2.5" style="stroke:#181818;stroke-width:0.5;" width="103.5713" x="282.1157" y="1510.7656"/><text fill="#000000" font-family="sans-serif" font-size="14" lengthAdjust="spacing" textLength="89.5713" x="289.1157" y="1530.7607">IYM Backend</text></g><g class="participant participant-head" data-participant="DB"><rect fill="#E2E2F0" height="30.2969" rx="2.5" ry="2.5" style="stroke:#181818;stroke-width:0.5;" width="102.7852" x="530.3208" y="50"/><text fill="#000000" font-family="sans-serif" font-size="14" lengthAdjust="spacing" textLength="88.7852" x="537.3208" y="69.9951">DB.MOBILEN</text></g><g class="participant participant-tail" data-participant="DB"><rect fill="#E2E2F0" height="30.2969" rx="2.5" ry="2.5" style="stroke:#181818;stroke-width:0.5;" width="102.7852" x="530.3208" y="1510.7656"/><text fill="#000000" font-family="sans-serif" font-size="14" lengthAdjust="spacing" textLength="88.7852" x="537.3208" y="1530.7607">DB.MOBILEN</text></g><g class="participant participant-head" data-participant="Processing"><rect fill="#E2E2F0" height="30.2969" rx="2.5" ry="2.5" style="stroke:#181818;stroke-width:0.5;" width="101.124" x="643.106" y="50"/><text fill="#000000" font-family="sans-serif" font-size="14" lengthAdjust="spacing" textLength="87.124" x="650.106" y="69.9951">Процессинг</text></g><g class="participant participant-tail" data-participant="Processing"><rect fill="#E2E2F0" height="30.2969" rx="2.5" ry="2.5" style="stroke:#181818;stroke-width:0.5;" width="101.124" x="643.106" y="1510.7656"/><text fill="#000000" font-family="sans-serif" font-size="14" lengthAdjust="spacing" textLength="87.124" x="650.106" y="1530.7607">Процессинг</text></g><path d="M206,96.2969 L206,136.2969 L460,136.2969 L460,106.2969 L450,96.2969 L206,96.2969" fill="#FEFFDD" style="stroke:#181818;stroke-width:0.5;"/><path d="M450,96.2969 L450,106.2969 L460,106.2969 L450,96.2969" fill="#FEFFDD" style="stroke:#181818;stroke-width:0.5;"/><text fill="#000000" font-family="sans-serif" font-size="13" lengthAdjust="spacing" textLength="131.0347" x="212" y="113.3638">IYB PAN: utils::$bins</text><text fill="#000000" font-family="sans-serif" font-size="13" lengthAdjust="spacing" textLength="233.1367" x="212" y="128.4966">Тип: Cards\CardHelper::mapVendor</text><rect fill="#EEEEEE" height="3" style="stroke:#EEEEEE;stroke-width:1;" width="764.23" x="0" y="162.1289"/><line style="stroke:#000000;stroke-width:1;" x1="0" x2="764.23" y1="162.1289" y2="162.1289"/><line style="stroke:#000000;stroke-width:1;" x1="0" x2="764.23" y1="165.1289" y2="165.1289"/><rect fill="#EEEEEE" height="23.1328" style="stroke:#000000;stroke-width:2;" width="120.3867" x="321.9216" y="151.5625"/><text fill="#000000" font-family="sans-serif" font-size="13" font-weight="bold" lengthAdjust="spacing" textLength="106.3867" x="327.9216" y="167.6294">v1/card/holder</text><g class="message" data-participant-1="User" data-participant-2="App"><polygon fill="#181818" points="191.5146,201.8281,201.5146,205.8281,191.5146,209.8281,195.5146,205.8281" style="stroke:#181818;stroke-width:1;"/><line style="stroke:#181818;stroke-width:1;" x1="74.5498" x2="197.5146" y1="205.8281" y2="205.8281"/><text fill="#000000" font-family="sans-serif" font-size="13" lengthAdjust="spacing" textLength="72.0776" x="81.5498" y="200.7622">Ввода PAN</text></g><g class="message" data-participant-1="App" data-participant-2="BE"><polygon fill="#181818" points="321.9014,230.9609,331.9014,234.9609,321.9014,238.9609,325.9014,234.9609" style="stroke:#181818;stroke-width:1;"/><line style="stroke:#181818;stroke-width:1;" x1="203.5146" x2="327.9014" y1="234.9609" y2="234.9609"/><text fill="#000000" font-family="sans-serif" font-size="13" font-weight="bold" lengthAdjust="spacing" textLength="106.3867" x="210.5146" y="229.895">v1/card/holder</text></g><g class="message" data-participant-1="BE" data-participant-2="BE"><line style="stroke:#181818;stroke-width:1;" x1="333.9014" x2="375.9014" y1="264.0938" y2="264.0938"/><line style="stroke:#181818;stroke-width:1;" x1="375.9014" x2="375.9014" y1="264.0938" y2="277.0938"/><line style="stroke:#181818;stroke-width:1;" x1="334.9014" x2="375.9014" y1="277.0938" y2="277.0938"/><polygon fill="#181818" points="344.9014,273.0938,334.9014,277.0938,344.9014,281.0938,340.9014,277.0938" style="stroke:#181818;stroke-width:1;"/><text fill="#000000" font-family="sans-serif" font-size="13" lengthAdjust="spacing" textLength="182.0825" x="340.9014" y="259.0278">[Процесс: Валидация PAN]</text></g><path d="M272.1157,292.0938 L336.5586,292.0938 L336.5586,299.2266 L326.5586,309.2266 L272.1157,309.2266 L272.1157,292.0938" fill="#EEEEEE" style="stroke:#000000;stroke-width:1.5;"/><rect fill="none" height="59.2656" style="stroke:#000000;stroke-width:1.5;" width="205.0615" x="272.1157" y="292.0938"/><text fill="#000000" font-family="sans-serif" font-size="13" font-weight="bold" lengthAdjust="spacing" textLength="19.4429" x="287.1157" y="305.1606">alt</text><text fill="#000000" font-family="sans-serif" font-size="11" font-weight="bold" lengthAdjust="spacing" textLength="120.6187" x="351.5586" y="304.3042">[Невалидный PAN]</text><g class="message" data-participant-1="BE" data-participant-2="BE"><line style="stroke:#181818;stroke-width:1;" x1="333.9014" x2="375.9014" y1="330.3594" y2="330.3594"/><line style="stroke:#181818;stroke-width:1;" x1="375.9014" x2="375.9014" y1="330.3594" y2="343.3594"/><line style="stroke:#181818;stroke-width:1;" x1="334.9014" x2="375.9014" y1="343.3594" y2="343.3594"/><polygon fill="#181818" points="344.9014,339.3594,334.9014,343.3594,344.9014,347.3594,340.9014,343.3594" style="stroke:#181818;stroke-width:1;"/><text fill="#000000" font-family="sans-serif" font-size="13" lengthAdjust="spacing" textLength="73.9438" x="340.9014" y="325.2935">invalid_pan</text></g><g class="message" data-participant-1="BE" data-participant-2="Processing"><polygon fill="#181818" points="681.668,375.4922,691.668,379.4922,681.668,383.4922,685.668,379.4922" style="stroke:#181818;stroke-width:1;"/><line style="stroke:#181818;stroke-width:1;" x1="333.9014" x2="687.668" y1="379.4922" y2="379.4922"/><text fill="#000000" font-family="sans-serif" font-size="13" lengthAdjust="spacing" textLength="135.5796" x="340.9014" y="374.4263">getCardHolderByPan</text></g><path d="M10,394.4922 L74.4429,394.4922 L74.4429,401.625 L64.4429,411.625 L10,411.625 L10,394.4922" fill="#EEEEEE" style="stroke:#000000;stroke-width:1.5;"/><rect fill="none" height="643.6094" style="stroke:#000000;stroke-width:1.5;" width="744.23" x="10" y="394.4922"/><text fill="#000000" font-family="sans-serif" font-size="13" font-weight="bold" lengthAdjust="spacing" textLength="19.4429" x="25" y="407.5591">alt</text><text fill="#000000" font-family="sans-serif" font-size="11" font-weight="bold" lengthAdjust="spacing" textLength="60.1079" x="89.4429" y="406.7026">[IYB PAN]</text><g class="message" data-participant-1="Processing" data-participant-2="BE"><polygon fill="#181818" points="344.9014,428.7578,334.9014,432.7578,344.9014,436.7578,340.9014,432.7578" style="stroke:#181818;stroke-width:1;"/><line style="stroke:#181818;stroke-width:1;" x1="338.9014" x2="692.668" y1="432.7578" y2="432.7578"/><text fill="#000000" font-family="sans-serif" font-size="13" lengthAdjust="spacing" textLength="91.7236" x="350.9014" y="427.6919">Имя на карте</text></g><g class="message" data-participant-1="BE" data-participant-2="DB"><polygon fill="#181818" points="569.7134,457.8906,579.7134,461.8906,569.7134,465.8906,573.7134,461.8906" style="stroke:#181818;stroke-width:1;"/><line style="stroke:#181818;stroke-width:1;" x1="333.9014" x2="575.7134" y1="461.8906" y2="461.8906"/><text fill="#000000" font-family="sans-serif" font-size="13" lengthAdjust="spacing" textLength="223.812" x="340.9014" y="456.8247">Запросить BANK_CARD_PREFIXES</text></g><path d="M509,474.8906 L509,499.8906 L653,499.8906 L653,484.8906 L643,474.8906 L509,474.8906" fill="#87CEEB" style="stroke:#181818;stroke-width:0.5;"/><path d="M643,474.8906 L643,484.8906 L653,484.8906 L643,474.8906" fill="#87CEEB" style="stroke:#181818;stroke-width:0.5;"/><text fill="#000000" font-family="sans-serif" font-size="13" lengthAdjust="spacing" textLength="123.6143" x="515" y="491.9575">PREFIX=(PAN(0,6))</text><g class="message" data-participant-1="DB" data-participant-2="BE"><polygon fill="#181818" points="344.9014,522.1563,334.9014,526.1563,344.9014,530.1563,340.9014,526.1563" style="stroke:#181818;stroke-width:1;"/><line style="stroke:#181818;stroke-width:1;" x1="338.9014" x2="580.7134" y1="526.1563" y2="526.1563"/><text fill="#000000" font-family="sans-serif" font-size="13" lengthAdjust="spacing" textLength="200.0337" x="350.9014" y="521.0903">Запись BANK_CARD_PREFIXES</text></g><g class="message" data-participant-1="BE" data-participant-2="DB"><polygon fill="#181818" points="569.7134,551.2891,579.7134,555.2891,569.7134,559.2891,573.7134,555.2891" style="stroke:#181818;stroke-width:1;"/><line style="stroke:#181818;stroke-width:1;" x1="333.9014" x2="575.7134" y1="555.2891" y2="555.2891"/><text fill="#000000" font-family="sans-serif" font-size="13" lengthAdjust="spacing" textLength="120.2817" x="340.9014" y="550.2231">Запросить BANKS</text></g><path d="M428,568.2891 L428,593.2891 L734,593.2891 L734,578.2891 L724,568.2891 L428,568.2891" fill="#87CEEB" style="stroke:#181818;stroke-width:0.5;"/><path d="M724,568.2891 L724,578.2891 L734,578.2891 L724,568.2891" fill="#87CEEB" style="stroke:#181818;stroke-width:0.5;"/><text fill="#000000" font-family="sans-serif" font-size="13" lengthAdjust="spacing" textLength="285.8223" x="434" y="585.356">BANK_ID=(BANK_CARD_PREFIXES.BANK_ID)</text><g class="message" data-participant-1="DB" data-participant-2="BE"><polygon fill="#181818" points="344.9014,615.5547,334.9014,619.5547,344.9014,623.5547,340.9014,619.5547" style="stroke:#181818;stroke-width:1;"/><line style="stroke:#181818;stroke-width:1;" x1="338.9014" x2="580.7134" y1="619.5547" y2="619.5547"/><text fill="#000000" font-family="sans-serif" font-size="13" lengthAdjust="spacing" textLength="96.5034" x="350.9014" y="614.4888">Запись BANKS</text></g><g class="message" data-participant-1="BE" data-participant-2="DB"><polygon fill="#181818" points="569.7134,644.6875,579.7134,648.6875,569.7134,652.6875,573.7134,648.6875" style="stroke:#181818;stroke-width:1;"/><line style="stroke:#181818;stroke-width:1;" x1="333.9014" x2="575.7134" y1="648.6875" y2="648.6875"/><text fill="#000000" font-family="sans-serif" font-size="13" lengthAdjust="spacing" textLength="93.3105" x="340.9014" y="643.6216">Запись ICONS</text></g><path d="M513,661.6875 L513,686.6875 L648,686.6875 L648,671.6875 L638,661.6875 L513,661.6875" fill="#87CEEB" style="stroke:#181818;stroke-width:0.5;"/><path d="M638,661.6875 L638,671.6875 L648,671.6875 L638,661.6875" fill="#87CEEB" style="stroke:#181818;stroke-width:0.5;"/><text fill="#000000" font-family="sans-serif" font-size="13" lengthAdjust="spacing" textLength="114.9307" x="519" y="678.7544">NAME=(Тип)_pan</text><g class="message" data-participant-1="DB" data-participant-2="BE"><polygon fill="#181818" points="344.9014,708.9531,334.9014,712.9531,344.9014,716.9531,340.9014,712.9531" style="stroke:#181818;stroke-width:1;"/><line style="stroke:#181818;stroke-width:1;" x1="338.9014" x2="580.7134" y1="712.9531" y2="712.9531"/><text fill="#000000" font-family="sans-serif" font-size="13" lengthAdjust="spacing" textLength="49.8481" x="350.9014" y="707.8872">Иконка</text></g><g class="message" data-participant-1="BE" data-participant-2="App"><polygon fill="#181818" points="214.5146,738.0859,204.5146,742.0859,214.5146,746.0859,210.5146,742.0859" style="stroke:#181818;stroke-width:1;"/><line style="stroke:#181818;stroke-width:1;" x1="208.5146" x2="332.9014" y1="742.0859" y2="742.0859"/><text fill="#000000" font-family="sans-serif" font-size="13" lengthAdjust="spacing" textLength="60.4868" x="220.5146" y="737.02">Resource</text></g><g class="message" data-participant-1="App" data-participant-2="User"><polygon fill="#181818" points="85.5498,767.2188,75.5498,771.2188,85.5498,775.2188,81.5498,771.2188" style="stroke:#181818;stroke-width:1;"/><line style="stroke:#181818;stroke-width:1;" x1="79.5498" x2="202.5146" y1="771.2188" y2="771.2188"/><text fill="#000000" font-family="sans-serif" font-size="13" lengthAdjust="spacing" textLength="94.6499" x="91.5498" y="766.1528">Отображение</text></g><line style="stroke:#000000;stroke-width:1;stroke-dasharray:2.0,2.0;" x1="10" x2="754.23" y1="780.2188" y2="780.2188"/><text fill="#000000" font-family="sans-serif" font-size="11" font-weight="bold" lengthAdjust="spacing" textLength="80.604" x="15" y="790.4292">[Не IYB PAN]</text><path d="M272.1157,801.0234 L336.5586,801.0234 L336.5586,808.1563 L326.5586,818.1563 L272.1157,818.1563 L272.1157,801.0234" fill="#EEEEEE" style="stroke:#000000;stroke-width:1.5;"/><rect fill="none" height="230.0781" style="stroke:#000000;stroke-width:1.5;" width="247.7925" x="272.1157" y="801.0234"/><text fill="#000000" font-family="sans-serif" font-size="13" font-weight="bold" lengthAdjust="spacing" textLength="19.4429" x="287.1157" y="814.0903">alt</text><text fill="#000000" font-family="sans-serif" font-size="11" font-weight="bold" lengthAdjust="spacing" textLength="17.7085" x="351.5586" y="813.2339">[4]</text><g class="message" data-participant-1="BE" data-participant-2="BE"><line style="stroke:#181818;stroke-width:1;" x1="333.9014" x2="375.9014" y1="839.2891" y2="839.2891"/><line style="stroke:#181818;stroke-width:1;" x1="375.9014" x2="375.9014" y1="839.2891" y2="852.2891"/><line style="stroke:#181818;stroke-width:1;" x1="334.9014" x2="375.9014" y1="852.2891" y2="852.2891"/><polygon fill="#181818" points="344.9014,848.2891,334.9014,852.2891,344.9014,856.2891,340.9014,852.2891" style="stroke:#181818;stroke-width:1;"/><text fill="#000000" font-family="sans-serif" font-size="13" lengthAdjust="spacing" textLength="162.2905" x="340.9014" y="834.2231">please_try_vd_2_transfer</text></g><line style="stroke:#000000;stroke-width:1;stroke-dasharray:2.0,2.0;" x1="272.1157" x2="519.9082" y1="861.2891" y2="861.2891"/><text fill="#000000" font-family="sans-serif" font-size="11" font-weight="bold" lengthAdjust="spacing" textLength="119.0396" x="277.1157" y="871.4995">[51-55, 2221-2720]</text><g class="message" data-participant-1="BE" data-participant-2="BE"><line style="stroke:#181818;stroke-width:1;" x1="333.9014" x2="375.9014" y1="896.2266" y2="896.2266"/><line style="stroke:#181818;stroke-width:1;" x1="375.9014" x2="375.9014" y1="896.2266" y2="909.2266"/><line style="stroke:#181818;stroke-width:1;" x1="334.9014" x2="375.9014" y1="909.2266" y2="909.2266"/><polygon fill="#181818" points="344.9014,905.2266,334.9014,909.2266,344.9014,913.2266,340.9014,909.2266" style="stroke:#181818;stroke-width:1;"/><text fill="#000000" font-family="sans-serif" font-size="13" lengthAdjust="spacing" textLength="165.7817" x="340.9014" y="891.1606">please_try_ms_2_transfer</text></g><line style="stroke:#000000;stroke-width:1;stroke-dasharray:2.0,2.0;" x1="272.1157" x2="519.9082" y1="918.2266" y2="918.2266"/><text fill="#000000" font-family="sans-serif" font-size="11" font-weight="bold" lengthAdjust="spacing" textLength="25.3623" x="277.1157" y="928.437">[62]</text><g class="message" data-participant-1="BE" data-participant-2="BE"><line style="stroke:#181818;stroke-width:1;" x1="333.9014" x2="375.9014" y1="953.1641" y2="953.1641"/><line style="stroke:#181818;stroke-width:1;" x1="375.9014" x2="375.9014" y1="953.1641" y2="966.1641"/><line style="stroke:#181818;stroke-width:1;" x1="334.9014" x2="375.9014" y1="966.1641" y2="966.1641"/><polygon fill="#181818" points="344.9014,962.1641,334.9014,966.1641,344.9014,970.1641,340.9014,966.1641" style="stroke:#181818;stroke-width:1;"/><text fill="#000000" font-family="sans-serif" font-size="13" lengthAdjust="spacing" textLength="167.0068" x="340.9014" y="948.0981">please_try_me_2_transfer</text></g><line style="stroke:#000000;stroke-width:1;stroke-dasharray:2.0,2.0;" x1="272.1157" x2="519.9082" y1="975.1641" y2="975.1641"/><text fill="#000000" font-family="sans-serif" font-size="11" font-weight="bold" lengthAdjust="spacing" textLength="103.8823" x="277.1157" y="985.3745">[Неверный PAN]</text><g class="message" data-participant-1="BE" data-participant-2="BE"><line style="stroke:#181818;stroke-width:1;" x1="333.9014" x2="375.9014" y1="1010.1016" y2="1010.1016"/><line style="stroke:#181818;stroke-width:1;" x1="375.9014" x2="375.9014" y1="1010.1016" y2="1023.1016"/><line style="stroke:#181818;stroke-width:1;" x1="334.9014" x2="375.9014" y1="1023.1016" y2="1023.1016"/><polygon fill="#181818" points="344.9014,1019.1016,334.9014,1023.1016,344.9014,1027.1016,340.9014,1023.1016" style="stroke:#181818;stroke-width:1;"/><text fill="#000000" font-family="sans-serif" font-size="13" lengthAdjust="spacing" textLength="111.1729" x="340.9014" y="1005.0356">wrong_card_type</text></g><rect fill="#EEEEEE" height="3" style="stroke:#EEEEEE;stroke-width:1;" width="764.23" x="0" y="1065.668"/><line style="stroke:#000000;stroke-width:1;" x1="0" x2="764.23" y1="1065.668" y2="1065.668"/><line style="stroke:#000000;stroke-width:1;" x1="0" x2="764.23" y1="1068.668" y2="1068.668"/><rect fill="#EEEEEE" height="23.1328" style="stroke:#000000;stroke-width:2;" width="128.6196" x="317.8052" y="1055.1016"/><text fill="#000000" font-family="sans-serif" font-size="13" font-weight="bold" lengthAdjust="spacing" textLength="114.6196" x="323.8052" y="1071.1685">Альт. действие</text><path d="M222,1093.2344 L222,1118.2344 L445,1118.2344 L445,1103.2344 L435,1093.2344 L222,1093.2344" fill="#FEFFDD" style="stroke:#181818;stroke-width:0.5;"/><path d="M435,1093.2344 L435,1103.2344 L445,1103.2344 L435,1093.2344" fill="#FEFFDD" style="stroke:#181818;stroke-width:0.5;"/><text fill="#000000" font-family="sans-serif" font-size="13" lengthAdjust="spacing" textLength="202.1729" x="228" y="1110.3013">Если выбросился Translatable</text><g class="message" data-participant-1="BE" data-participant-2="DB"><polygon fill="#181818" points="569.7134,1140.5,579.7134,1144.5,569.7134,1148.5,573.7134,1144.5" style="stroke:#181818;stroke-width:1;"/><line style="stroke:#181818;stroke-width:1;" x1="333.9014" x2="575.7134" y1="1144.5" y2="1144.5"/><text fill="#000000" font-family="sans-serif" font-size="13" lengthAdjust="spacing" textLength="139.9531" x="340.9014" y="1139.4341">Связка ALT_ACTIONS</text></g><path d="M507,1157.5 L507,1182.5 L655,1182.5 L655,1167.5 L645,1157.5 L507,1157.5" fill="#87CEEB" style="stroke:#181818;stroke-width:0.5;"/><path d="M645,1157.5 L645,1167.5 L655,1167.5 L645,1157.5" fill="#87CEEB" style="stroke:#181818;stroke-width:0.5;"/><text fill="#000000" font-family="sans-serif" font-size="13" lengthAdjust="spacing" textLength="127.5435" x="513" y="1174.5669">TARGET=(Ошибка)</text><path d="M10,1194.6328 L74.4429,1194.6328 L74.4429,1201.7656 L64.4429,1211.7656 L10,1211.7656 L10,1194.6328" fill="#EEEEEE" style="stroke:#000000;stroke-width:1.5;"/><rect fill="none" height="300.1328" style="stroke:#000000;stroke-width:1.5;" width="668.2231" x="10" y="1194.6328"/><text fill="#000000" font-family="sans-serif" font-size="13" font-weight="bold" lengthAdjust="spacing" textLength="19.4429" x="25" y="1207.6997">alt</text><text fill="#000000" font-family="sans-serif" font-size="11" font-weight="bold" lengthAdjust="spacing" textLength="137.1455" x="89.4429" y="1206.8433">[Есть альт. действие]</text><g class="message" data-participant-1="DB" data-participant-2="BE"><polygon fill="#181818" points="344.9014,1228.8984,334.9014,1232.8984,344.9014,1236.8984,340.9014,1232.8984" style="stroke:#181818;stroke-width:1;"/><line style="stroke:#181818;stroke-width:1;" x1="338.9014" x2="580.7134" y1="1232.8984" y2="1232.8984"/><text fill="#000000" font-family="sans-serif" font-size="13" lengthAdjust="spacing" textLength="140.7212" x="350.9014" y="1227.8325">Запись ALT_ACTIONS</text></g><g class="message" data-participant-1="BE" data-participant-2="DB"><polygon fill="#181818" points="569.7134,1258.0313,579.7134,1262.0313,569.7134,1266.0313,573.7134,1262.0313" style="stroke:#181818;stroke-width:1;"/><line style="stroke:#181818;stroke-width:1;" x1="333.9014" x2="575.7134" y1="1262.0313" y2="1262.0313"/><text fill="#000000" font-family="sans-serif" font-size="13" lengthAdjust="spacing" textLength="195.4126" x="340.9014" y="1256.9653">Запросить LAYOUT_WIDGETS</text></g><path d="M495,1275.0313 L495,1300.0313 L668,1300.0313 L668,1285.0313 L658,1275.0313 L495,1275.0313" fill="#87CEEB" style="stroke:#181818;stroke-width:0.5;"/><path d="M658,1275.0313 L658,1285.0313 L668,1285.0313 L658,1275.0313" fill="#87CEEB" style="stroke:#181818;stroke-width:0.5;"/><text fill="#000000" font-family="sans-serif" font-size="13" lengthAdjust="spacing" textLength="152.2231" x="501" y="1292.0981">ID=(ALT_ACTIONS.KEY)</text><g class="message" data-participant-1="DB" data-participant-2="BE"><polygon fill="#181818" points="344.9014,1322.2969,334.9014,1326.2969,344.9014,1330.2969,340.9014,1326.2969" style="stroke:#181818;stroke-width:1;"/><line style="stroke:#181818;stroke-width:1;" x1="338.9014" x2="580.7134" y1="1326.2969" y2="1326.2969"/><text fill="#000000" font-family="sans-serif" font-size="13" lengthAdjust="spacing" textLength="171.6343" x="350.9014" y="1321.231">Запись LAYOUT_WIDGETS</text></g><g class="message" data-participant-1="BE" data-participant-2="App"><polygon fill="#181818" points="214.5146,1351.4297,204.5146,1355.4297,214.5146,1359.4297,210.5146,1355.4297" style="stroke:#181818;stroke-width:1;"/><line style="stroke:#181818;stroke-width:1;" x1="208.5146" x2="332.9014" y1="1355.4297" y2="1355.4297"/><text fill="#000000" font-family="sans-serif" font-size="13" lengthAdjust="spacing" textLength="104.9648" x="220.5146" y="1350.3638">Альт. действие</text></g><g class="message" data-participant-1="App" data-participant-2="User"><polygon fill="#181818" points="85.5498,1380.5625,75.5498,1384.5625,85.5498,1388.5625,81.5498,1384.5625" style="stroke:#181818;stroke-width:1;"/><line style="stroke:#181818;stroke-width:1;" x1="79.5498" x2="202.5146" y1="1384.5625" y2="1384.5625"/><text fill="#000000" font-family="sans-serif" font-size="13" lengthAdjust="spacing" textLength="104.9648" x="91.5498" y="1379.4966">Альт. действие</text></g><line style="stroke:#000000;stroke-width:1;stroke-dasharray:2.0,2.0;" x1="10" x2="678.2231" y1="1393.5625" y2="1393.5625"/><text fill="#000000" font-family="sans-serif" font-size="11" font-weight="bold" lengthAdjust="spacing" textLength="132.4243" x="15" y="1403.7729">[Нет альт. действия]</text><g class="message" data-participant-1="DB" data-participant-2="BE"><polygon fill="#181818" points="344.9014,1424.5,334.9014,1428.5,344.9014,1432.5,340.9014,1428.5" style="stroke:#181818;stroke-width:1;"/><line style="stroke:#181818;stroke-width:1;" x1="338.9014" x2="580.7134" y1="1428.5" y2="1428.5"/><text fill="#000000" font-family="sans-serif" font-size="13" lengthAdjust="spacing" textLength="51.8477" x="350.9014" y="1423.4341">(empty)</text></g><g class="message" data-participant-1="BE" data-participant-2="App"><polygon fill="#181818" points="214.5146,1453.6328,204.5146,1457.6328,214.5146,1461.6328,210.5146,1457.6328" style="stroke:#181818;stroke-width:1;"/><line style="stroke:#181818;stroke-width:1;" x1="208.5146" x2="332.9014" y1="1457.6328" y2="1457.6328"/><text fill="#000000" font-family="sans-serif" font-size="13" lengthAdjust="spacing" textLength="54.4121" x="220.5146" y="1452.5669">Ошибка</text></g><g class="message" data-participant-1="App" data-participant-2="User"><polygon fill="#181818" points="85.5498,1482.7656,75.5498,1486.7656,85.5498,1490.7656,81.5498,1486.7656" style="stroke:#181818;stroke-width:1;"/><line style="stroke:#181818;stroke-width:1;" x1="79.5498" x2="202.5146" y1="1486.7656" y2="1486.7656"/><text fill="#000000" font-family="sans-serif" font-size="13" lengthAdjust="spacing" textLength="54.4121" x="91.5498" y="1481.6997">Ошибка</text></g><!--SRC=[bLJVJzDG57xlNt4pVTWMDg01J1fhqcvL6s0iOwYBcgPiLsmeRTEMcRsnFHWJIJ0cH1uKed_1GASWClw5s__8S-z-j8MDmHwwhUUSx_lkET-vUjMtNTJx9CWHwPBpO9VyWUyJqWvQf4F_9sXKzz2QXrtEqLtVg1gERlbGyPKS8RMod4333-H9ZXDFWmmawzLDRDKIWoHPYUVavUpoYgmkAON442WlNw4x2dP8DtXFEa4pQ99JSa5-Xjb5rwvYppEi3OwpR1yZkuvTogDMP5IK2WBQzWtJ4uJxwuRbSUG705mAAAUxDUyLVJx5feDTGTZIdMSWrNOvU28AnN6YM9-ThaBIz5lRh65N53dQ3fHvH8-B14G-Gykwv1TfKowEleIOh40edOxNfjCSl1z4NyPFnP3Qv1p40HQyFGtsAE9hJZTzHBx1I4w6yOlW8pbZVBG74L33gkkcKTEWR_GGVRwmGv2oWNrsQ2P9RXGXapBqcpK0V9Y9Lv43yWy4GUVRYFm5WJlK9H7wl4ople34ItOi65FG2dQHB1KMjPnKocl5al9OVQ6iig9mK51uRtMp8PlRc1kOgPSg9a5GScPg8PLYaU5KGeqHLk1hZkURBF8skXYucXUJrrco_TWTfOvHryzGSok5s-WgICkAcEmvEyM6VwE80vXW5qO9SsGnQbe8CWULi6TlkzLU4RCwHFfMFuIPTyanjAvDVeCXBu2lms7JmyoWCGzHJys5ZGijwfXOzx3ckmsjNjDu-A5RtXkuOPXaYZK_cvcVdq8ypyzc-0Vyp0IKBMyaoW8_gGwFhEklMWTE6L-pAqZlNDlQqEXwQtx3mOEEixKJHVA9tg11AujWNJla3CRP0bJe5zmWiLkArf5zi2AiDY8dG7ayy2P0D67fobIZgVlwked3godgcUzGjmVNDmmKIKjbJSgLLUgSyQufIwKdIXaySnXy0A9ZMfeAmTcTiqz5WmlfjJFwB3VQEofayWekIPMLjRBsNCs3hjjudgvXX2Axg5Jki7iZwA9RC7vye_PYVFBGKK5hR1k3lQjAatZByHkfwweYmngzds4Okl0V]--></g></svg>